<svg width="1024" height="753" viewBox="0 0 1024 753" fill="none" xmlns="http://www.w3.org/2000/svg">
<g opacity="0.2" filter="url(#filter0_f_175_198)">
<ellipse cx="510" cy="168.125" rx="669" ry="351.125" fill="#338AF3"/>
</g>
<path d="M31.6075 404.884C33.0995 404.884 34.2289 405.517 34.9958 406.781C35.7767 408.032 36.1671 409.853 36.1671 412.244C36.1671 414.635 35.7767 416.462 34.9958 417.727C34.2289 418.992 33.0995 419.624 31.6075 419.624C30.1295 419.624 29.0001 418.992 28.2192 417.727C27.4384 416.462 27.048 414.635 27.048 412.244C27.048 409.867 27.4384 408.046 28.2192 406.781C29.0001 405.517 30.1295 404.884 31.6075 404.884ZM28.533 412.244C28.533 413.94 28.6863 415.267 28.9931 416.226L33.6363 406.99C33.1483 406.337 32.472 406.01 31.6075 406.01C30.6454 406.01 29.8925 406.524 29.3487 407.553C28.8049 408.568 28.533 410.131 28.533 412.244ZM31.6075 418.478C32.5836 418.478 33.3435 417.97 33.8873 416.956C34.4311 415.927 34.703 414.357 34.703 412.244C34.703 410.451 34.5287 409.061 34.1801 408.074L29.5369 417.394C30.0389 418.116 30.7291 418.478 31.6075 418.478Z" fill="url(#paint0_linear_175_198)" fill-opacity="0.6"/>
<path d="M32.8625 442.138H35.937V443.243H27.9682V442.138H31.5239V430.421L28.1356 432.444L27.5499 431.505L31.733 428.92H32.8625V442.138Z" fill="url(#paint1_linear_175_198)" fill-opacity="0.6"/>
<path d="M31.6075 452.539C33.0995 452.539 34.2289 453.171 34.9958 454.436C35.7767 455.687 36.1671 457.508 36.1671 459.899C36.1671 462.289 35.7767 464.117 34.9958 465.382C34.2289 466.647 33.0995 467.279 31.6075 467.279C30.1295 467.279 29.0001 466.647 28.2192 465.382C27.4384 464.117 27.048 462.289 27.048 459.899C27.048 457.522 27.4384 455.701 28.2192 454.436C29.0001 453.171 30.1295 452.539 31.6075 452.539ZM28.533 459.899C28.533 461.594 28.6863 462.922 28.9931 463.881L33.6363 454.645C33.1483 453.992 32.472 453.665 31.6075 453.665C30.6454 453.665 29.8925 454.179 29.3487 455.208C28.8049 456.222 28.533 457.786 28.533 459.899ZM31.6075 466.133C32.5836 466.133 33.3435 465.625 33.8873 464.611C34.4311 463.582 34.703 462.011 34.703 459.899C34.703 458.106 34.5287 456.716 34.1801 455.729L29.5369 465.048C30.0389 465.771 30.7291 466.133 31.6075 466.133Z" fill="url(#paint2_linear_175_198)" fill-opacity="0.6"/>
<path d="M32.8625 489.793H35.937V490.898H27.9682V489.793H31.5239V478.076L28.1356 480.098L27.5499 479.16L31.733 476.575H32.8625V489.793Z" fill="url(#paint3_linear_175_198)" fill-opacity="0.6"/>
<path d="M32.8625 513.621H35.937V514.726H27.9682V513.621H31.5239V501.904L28.1356 503.926L27.5499 502.988L31.733 500.402H32.8625V513.621Z" fill="url(#paint4_linear_175_198)" fill-opacity="0.6"/>
<path d="M31.6075 524.021C33.0995 524.021 34.2289 524.654 34.9958 525.919C35.7767 527.17 36.1671 528.99 36.1671 531.381C36.1671 533.772 35.7767 535.6 34.9958 536.864C34.2289 538.129 33.0995 538.762 31.6075 538.762C30.1295 538.762 29.0001 538.129 28.2192 536.864C27.4384 535.6 27.048 533.772 27.048 531.381C27.048 529.004 27.4384 527.183 28.2192 525.919C29.0001 524.654 30.1295 524.021 31.6075 524.021ZM28.533 531.381C28.533 533.077 28.6863 534.404 28.9931 535.363L33.6363 526.127C33.1483 525.474 32.472 525.147 31.6075 525.147C30.6454 525.147 29.8925 525.661 29.3487 526.69C28.8049 527.705 28.533 529.268 28.533 531.381ZM31.6075 537.615C32.5836 537.615 33.3435 537.108 33.8873 536.093C34.4311 535.064 34.703 533.494 34.703 531.381C34.703 529.588 34.5287 528.198 34.1801 527.211L29.5369 536.531C30.0389 537.254 30.7291 537.615 31.6075 537.615Z" fill="url(#paint5_linear_175_198)" fill-opacity="0.6"/>
<path d="M32.8625 561.276H35.937V562.381H27.9682V561.276H31.5239V549.558L28.1356 551.581L27.5499 550.643L31.733 548.057H32.8625V561.276Z" fill="url(#paint6_linear_175_198)" fill-opacity="0.6"/>
<path d="M31.6075 571.676C33.0995 571.676 34.2289 572.309 34.9958 573.573C35.7767 574.824 36.1671 576.645 36.1671 579.036C36.1671 581.427 35.7767 583.254 34.9958 584.519C34.2289 585.784 33.0995 586.416 31.6075 586.416C30.1295 586.416 29.0001 585.784 28.2192 584.519C27.4384 583.254 27.048 581.427 27.048 579.036C27.048 576.659 27.4384 574.838 28.2192 573.573C29.0001 572.309 30.1295 571.676 31.6075 571.676ZM28.533 579.036C28.533 580.732 28.6863 582.059 28.9931 583.018L33.6363 573.782C33.1483 573.129 32.472 572.802 31.6075 572.802C30.6454 572.802 29.8925 573.316 29.3487 574.345C28.8049 575.36 28.533 576.923 28.533 579.036ZM31.6075 585.27C32.5836 585.27 33.3435 584.762 33.8873 583.748C34.4311 582.719 34.703 581.149 34.703 579.036C34.703 577.243 34.5287 575.853 34.1801 574.866L29.5369 584.186C30.0389 584.908 30.7291 585.27 31.6075 585.27Z" fill="url(#paint7_linear_175_198)" fill-opacity="0.6"/>
<path d="M31.6075 595.504C33.0995 595.504 34.2289 596.136 34.9958 597.401C35.7767 598.652 36.1671 600.473 36.1671 602.863C36.1671 605.254 35.7767 607.082 34.9958 608.347C34.2289 609.611 33.0995 610.244 31.6075 610.244C30.1295 610.244 29.0001 609.611 28.2192 608.347C27.4384 607.082 27.048 605.254 27.048 602.863C27.048 600.487 27.4384 598.666 28.2192 597.401C29.0001 596.136 30.1295 595.504 31.6075 595.504ZM28.533 602.863C28.533 604.559 28.6863 605.886 28.9931 606.846L33.6363 597.609C33.1483 596.956 32.472 596.629 31.6075 596.629C30.6454 596.629 29.8925 597.144 29.3487 598.172C28.8049 599.187 28.533 600.751 28.533 602.863ZM31.6075 609.097C32.5836 609.097 33.3435 608.59 33.8873 607.575C34.4311 606.547 34.703 604.976 34.703 602.863C34.703 601.07 34.5287 599.68 34.1801 598.694L29.5369 608.013C30.0389 608.736 30.7291 609.097 31.6075 609.097Z" fill="url(#paint8_linear_175_198)" fill-opacity="0.6"/>
<path d="M32.8625 632.758H35.937V633.863H27.9682V632.758H31.5239V621.041L28.1356 623.063L27.5499 622.125L31.733 619.54H32.8625V632.758Z" fill="url(#paint9_linear_175_198)" fill-opacity="0.6"/>
<path d="M31.6075 643.159C33.0995 643.159 34.2289 643.791 34.9958 645.056C35.7767 646.307 36.1671 648.128 36.1671 650.518C36.1671 652.909 35.7767 654.737 34.9958 656.001C34.2289 657.266 33.0995 657.899 31.6075 657.899C30.1295 657.899 29.0001 657.266 28.2192 656.001C27.4384 654.737 27.048 652.909 27.048 650.518C27.048 648.141 27.4384 646.321 28.2192 645.056C29.0001 643.791 30.1295 643.159 31.6075 643.159ZM28.533 650.518C28.533 652.214 28.6863 653.541 28.9931 654.5L33.6363 645.264C33.1483 644.611 32.472 644.284 31.6075 644.284C30.6454 644.284 29.8925 644.799 29.3487 645.827C28.8049 646.842 28.533 648.406 28.533 650.518ZM31.6075 656.752C32.5836 656.752 33.3435 656.245 33.8873 655.23C34.4311 654.202 34.703 652.631 34.703 650.518C34.703 648.725 34.5287 647.335 34.1801 646.348L29.5369 655.668C30.0389 656.391 30.7291 656.752 31.6075 656.752Z" fill="url(#paint10_linear_175_198)" fill-opacity="0.6"/>
<path d="M32.8625 680.413H35.937V681.518H27.9682V680.413H31.5239V668.696L28.1356 670.718L27.5499 669.78L31.733 667.194H32.8625V680.413Z" fill="url(#paint11_linear_175_198)" fill-opacity="0.6"/>
<path d="M32.8625 704.24H35.937V705.345H27.9682V704.24H31.5239V692.523L28.1356 694.545L27.5499 693.607L31.733 691.022H32.8625V704.24Z" fill="url(#paint12_linear_175_198)" fill-opacity="0.6"/>
<path d="M70.4506 452.539C71.9426 452.539 73.072 453.171 73.8389 454.436C74.6198 455.687 75.0102 457.508 75.0102 459.899C75.0102 462.289 74.6198 464.117 73.8389 465.382C73.072 466.647 71.9426 467.279 70.4506 467.279C68.9726 467.279 67.8432 466.647 67.0623 465.382C66.2815 464.117 65.891 462.289 65.891 459.899C65.891 457.522 66.2815 455.701 67.0623 454.436C67.8432 453.171 68.9726 452.539 70.4506 452.539ZM67.376 459.899C67.376 461.594 67.5294 462.922 67.8362 463.881L72.4794 454.645C71.9914 453.992 71.3151 453.665 70.4506 453.665C69.4885 453.665 68.7356 454.179 68.1918 455.208C67.6479 456.222 67.376 457.786 67.376 459.899ZM70.4506 466.133C71.4267 466.133 72.1866 465.625 72.7304 464.611C73.2742 463.582 73.5461 462.011 73.5461 459.899C73.5461 458.106 73.3718 456.716 73.0232 455.729L68.38 465.048C68.882 465.771 69.5722 466.133 70.4506 466.133Z" fill="url(#paint13_linear_175_198)" fill-opacity="0.6"/>
<path d="M71.7056 489.793H74.7801V490.898H66.8113V489.793H70.367V478.076L66.9787 480.098L66.393 479.16L70.5761 476.575H71.7056V489.793Z" fill="url(#paint14_linear_175_198)" fill-opacity="0.6"/>
<path d="M70.4506 500.194C71.9426 500.194 73.072 500.826 73.8389 502.091C74.6198 503.342 75.0102 505.163 75.0102 507.554C75.0102 509.944 74.6198 511.772 73.8389 513.037C73.072 514.302 71.9426 514.934 70.4506 514.934C68.9726 514.934 67.8432 514.302 67.0623 513.037C66.2815 511.772 65.891 509.944 65.891 507.554C65.891 505.177 66.2815 503.356 67.0623 502.091C67.8432 500.826 68.9726 500.194 70.4506 500.194ZM67.376 507.554C67.376 509.249 67.5294 510.577 67.8362 511.536L72.4794 502.3C71.9914 501.646 71.3151 501.32 70.4506 501.32C69.4885 501.32 68.7356 501.834 68.1918 502.863C67.6479 503.877 67.376 505.441 67.376 507.554ZM70.4506 513.787C71.4267 513.787 72.1866 513.28 72.7304 512.266C73.2742 511.237 73.5461 509.666 73.5461 507.554C73.5461 505.761 73.3718 504.371 73.0232 503.384L68.38 512.703C68.882 513.426 69.5722 513.787 70.4506 513.787Z" fill="url(#paint15_linear_175_198)" fill-opacity="0.6"/>
<path d="M70.4506 524.021C71.9426 524.021 73.072 524.654 73.8389 525.919C74.6198 527.17 75.0102 528.99 75.0102 531.381C75.0102 533.772 74.6198 535.6 73.8389 536.864C73.072 538.129 71.9426 538.762 70.4506 538.762C68.9726 538.762 67.8432 538.129 67.0623 536.864C66.2815 535.6 65.891 533.772 65.891 531.381C65.891 529.004 66.2815 527.183 67.0623 525.919C67.8432 524.654 68.9726 524.021 70.4506 524.021ZM67.376 531.381C67.376 533.077 67.5294 534.404 67.8362 535.363L72.4794 526.127C71.9914 525.474 71.3151 525.147 70.4506 525.147C69.4885 525.147 68.7356 525.661 68.1918 526.69C67.6479 527.705 67.376 529.268 67.376 531.381ZM70.4506 537.615C71.4267 537.615 72.1866 537.108 72.7304 536.093C73.2742 535.064 73.5461 533.494 73.5461 531.381C73.5461 529.588 73.3718 528.198 73.0232 527.211L68.38 536.531C68.882 537.254 69.5722 537.615 70.4506 537.615Z" fill="url(#paint16_linear_175_198)" fill-opacity="0.6"/>
<path d="M71.7056 561.276H74.7801V562.381H66.8113V561.276H70.367V549.558L66.9787 551.581L66.393 550.643L70.5761 548.057H71.7056V561.276Z" fill="url(#paint17_linear_175_198)" fill-opacity="0.6"/>
<path d="M70.4506 571.676C71.9426 571.676 73.072 572.309 73.8389 573.573C74.6198 574.824 75.0102 576.645 75.0102 579.036C75.0102 581.427 74.6198 583.254 73.8389 584.519C73.072 585.784 71.9426 586.416 70.4506 586.416C68.9726 586.416 67.8432 585.784 67.0623 584.519C66.2815 583.254 65.891 581.427 65.891 579.036C65.891 576.659 66.2815 574.838 67.0623 573.573C67.8432 572.309 68.9726 571.676 70.4506 571.676ZM67.376 579.036C67.376 580.732 67.5294 582.059 67.8362 583.018L72.4794 573.782C71.9914 573.129 71.3151 572.802 70.4506 572.802C69.4885 572.802 68.7356 573.316 68.1918 574.345C67.6479 575.36 67.376 576.923 67.376 579.036ZM70.4506 585.27C71.4267 585.27 72.1866 584.762 72.7304 583.748C73.2742 582.719 73.5461 581.149 73.5461 579.036C73.5461 577.243 73.3718 575.853 73.0232 574.866L68.38 584.186C68.882 584.908 69.5722 585.27 70.4506 585.27Z" fill="url(#paint18_linear_175_198)" fill-opacity="0.6"/>
<path d="M71.7056 608.93H74.7801V610.035H66.8113V608.93H70.367V597.213L66.9787 599.236L66.393 598.297L70.5761 595.712H71.7056V608.93Z" fill="url(#paint19_linear_175_198)" fill-opacity="0.6"/>
<path d="M70.4506 619.331C71.9426 619.331 73.072 619.964 73.8389 621.228C74.6198 622.479 75.0102 624.3 75.0102 626.691C75.0102 629.081 74.6198 630.909 73.8389 632.174C73.072 633.439 71.9426 634.071 70.4506 634.071C68.9726 634.071 67.8432 633.439 67.0623 632.174C66.2815 630.909 65.891 629.081 65.891 626.691C65.891 624.314 66.2815 622.493 67.0623 621.228C67.8432 619.964 68.9726 619.331 70.4506 619.331ZM67.376 626.691C67.376 628.386 67.5294 629.714 67.8362 630.673L72.4794 621.437C71.9914 620.784 71.3151 620.457 70.4506 620.457C69.4885 620.457 68.7356 620.971 68.1918 622C67.6479 623.014 67.376 624.578 67.376 626.691ZM70.4506 632.925C71.4267 632.925 72.1866 632.417 72.7304 631.403C73.2742 630.374 73.5461 628.803 73.5461 626.691C73.5461 624.898 73.3718 623.508 73.0232 622.521L68.38 631.84C68.882 632.563 69.5722 632.925 70.4506 632.925Z" fill="url(#paint20_linear_175_198)" fill-opacity="0.6"/>
<path d="M70.4506 643.159C71.9426 643.159 73.072 643.791 73.8389 645.056C74.6198 646.307 75.0102 648.128 75.0102 650.518C75.0102 652.909 74.6198 654.737 73.8389 656.001C73.072 657.266 71.9426 657.899 70.4506 657.899C68.9726 657.899 67.8432 657.266 67.0623 656.001C66.2815 654.737 65.891 652.909 65.891 650.518C65.891 648.141 66.2815 646.321 67.0623 645.056C67.8432 643.791 68.9726 643.159 70.4506 643.159ZM67.376 650.518C67.376 652.214 67.5294 653.541 67.8362 654.5L72.4794 645.264C71.9914 644.611 71.3151 644.284 70.4506 644.284C69.4885 644.284 68.7356 644.799 68.1918 645.827C67.6479 646.842 67.376 648.406 67.376 650.518ZM70.4506 656.752C71.4267 656.752 72.1866 656.245 72.7304 655.23C73.2742 654.202 73.5461 652.631 73.5461 650.518C73.5461 648.725 73.3718 647.335 73.0232 646.348L68.38 655.668C68.882 656.391 69.5722 656.752 70.4506 656.752Z" fill="url(#paint21_linear_175_198)" fill-opacity="0.6"/>
<path d="M71.7056 680.413H74.7801V681.518H66.8113V680.413H70.367V668.696L66.9787 670.718L66.393 669.78L70.5761 667.194H71.7056V680.413Z" fill="url(#paint22_linear_175_198)" fill-opacity="0.6"/>
<path d="M70.4506 690.813C71.9426 690.813 73.072 691.446 73.8389 692.711C74.6198 693.962 75.0102 695.782 75.0102 698.173C75.0102 700.564 74.6198 702.392 73.8389 703.656C73.072 704.921 71.9426 705.554 70.4506 705.554C68.9726 705.554 67.8432 704.921 67.0623 703.656C66.2815 702.392 65.891 700.564 65.891 698.173C65.891 695.796 66.2815 693.975 67.0623 692.711C67.8432 691.446 68.9726 690.813 70.4506 690.813ZM67.376 698.173C67.376 699.869 67.5294 701.196 67.8362 702.155L72.4794 692.919C71.9914 692.266 71.3151 691.939 70.4506 691.939C69.4885 691.939 68.7356 692.454 68.1918 693.482C67.6479 694.497 67.376 696.06 67.376 698.173ZM70.4506 704.407C71.4267 704.407 72.1866 703.9 72.7304 702.885C73.2742 701.856 73.5461 700.286 73.5461 698.173C73.5461 696.38 73.3718 694.99 73.0232 694.003L68.38 703.323C68.882 704.046 69.5722 704.407 70.4506 704.407Z" fill="url(#paint23_linear_175_198)" fill-opacity="0.6"/>
<path d="M71.7056 728.068H74.7801V729.173H66.8113V728.068H70.367V716.35L66.9787 718.373L66.393 717.435L70.5761 714.849H71.7056V728.068Z" fill="url(#paint24_linear_175_198)" fill-opacity="0.6"/>
<path d="M71.7056 751.895H74.7801V753H66.8113V751.895H70.367V740.178L66.9787 742.2L66.393 741.262L70.5761 738.677H71.7056V751.895Z" fill="url(#paint25_linear_175_198)" fill-opacity="0.6"/>
<path d="M12.186 476.367C13.678 476.367 14.8074 476.999 15.5743 478.264C16.3551 479.515 16.7456 481.336 16.7456 483.726C16.7456 486.117 16.3551 487.945 15.5743 489.209C14.8074 490.474 13.678 491.107 12.186 491.107C10.708 491.107 9.57852 490.474 8.79767 489.209C8.01683 487.945 7.6264 486.117 7.6264 483.726C7.6264 481.349 8.01683 479.529 8.79767 478.264C9.57852 476.999 10.708 476.367 12.186 476.367ZM9.11141 483.726C9.11141 485.422 9.26479 486.749 9.57155 487.708L14.2148 478.472C13.7268 477.819 13.0505 477.492 12.186 477.492C11.2239 477.492 10.4709 478.007 9.92711 479.035C9.38331 480.05 9.11141 481.614 9.11141 483.726ZM12.186 489.96C13.162 489.96 13.922 489.453 14.4658 488.438C15.0096 487.41 15.2815 485.839 15.2815 483.726C15.2815 481.933 15.1072 480.543 14.7586 479.556L10.1153 488.876C10.6173 489.599 11.3075 489.96 12.186 489.96Z" fill="url(#paint26_linear_175_198)" fill-opacity="0.6"/>
<path d="M12.186 500.194C13.678 500.194 14.8074 500.826 15.5743 502.091C16.3551 503.342 16.7456 505.163 16.7456 507.554C16.7456 509.944 16.3551 511.772 15.5743 513.037C14.8074 514.302 13.678 514.934 12.186 514.934C10.708 514.934 9.57852 514.302 8.79767 513.037C8.01683 511.772 7.6264 509.944 7.6264 507.554C7.6264 505.177 8.01683 503.356 8.79767 502.091C9.57852 500.826 10.708 500.194 12.186 500.194ZM9.11141 507.554C9.11141 509.249 9.26479 510.577 9.57155 511.536L14.2148 502.3C13.7268 501.646 13.0505 501.32 12.186 501.32C11.2239 501.32 10.4709 501.834 9.92711 502.863C9.38331 503.877 9.11141 505.441 9.11141 507.554ZM12.186 513.787C13.162 513.787 13.922 513.28 14.4658 512.266C15.0096 511.237 15.2815 509.666 15.2815 507.554C15.2815 505.761 15.1072 504.371 14.7586 503.384L10.1153 512.703C10.6173 513.426 11.3075 513.787 12.186 513.787Z" fill="url(#paint27_linear_175_198)" fill-opacity="0.6"/>
<path d="M13.4409 537.448H16.5155V538.553H8.54669V537.448H12.1023V525.731L8.71401 527.753L8.12838 526.815L12.3115 524.23H13.4409V537.448Z" fill="url(#paint28_linear_175_198)" fill-opacity="0.6"/>
<path d="M12.186 547.849C13.678 547.849 14.8074 548.481 15.5743 549.746C16.3551 550.997 16.7456 552.818 16.7456 555.209C16.7456 557.599 16.3551 559.427 15.5743 560.692C14.8074 561.957 13.678 562.589 12.186 562.589C10.708 562.589 9.57852 561.957 8.79767 560.692C8.01683 559.427 7.6264 557.599 7.6264 555.209C7.6264 552.832 8.01683 551.011 8.79767 549.746C9.57852 548.481 10.708 547.849 12.186 547.849ZM9.11141 555.209C9.11141 556.904 9.26479 558.232 9.57155 559.191L14.2148 549.955C13.7268 549.301 13.0505 548.975 12.186 548.975C11.2239 548.975 10.4709 549.489 9.92711 550.517C9.38331 551.532 9.11141 553.096 9.11141 555.209ZM12.186 561.442C13.162 561.442 13.922 560.935 14.4658 559.92C15.0096 558.892 15.2815 557.321 15.2815 555.209C15.2815 553.415 15.1072 552.026 14.7586 551.039L10.1153 560.358C10.6173 561.081 11.3075 561.442 12.186 561.442Z" fill="url(#paint29_linear_175_198)" fill-opacity="0.6"/>
<path d="M13.4409 585.103H16.5155V586.208H8.54669V585.103H12.1023V573.386L8.71401 575.408L8.12838 574.47L12.3115 571.885H13.4409V585.103Z" fill="url(#paint30_linear_175_198)" fill-opacity="0.6"/>
<path d="M13.4409 608.93H16.5155V610.035H8.54669V608.93H12.1023V597.213L8.71401 599.236L8.12838 598.297L12.3115 595.712H13.4409V608.93Z" fill="url(#paint31_linear_175_198)" fill-opacity="0.6"/>
<path d="M52.284 442.138H55.3586V443.243H47.3898V442.138H50.9454V430.421L47.5571 432.444L46.9715 431.505L51.1546 428.92H52.284V442.138Z" fill="url(#paint32_linear_175_198)" fill-opacity="0.6"/>
<path d="M51.0291 452.539C52.5211 452.539 53.6505 453.171 54.4174 454.436C55.1982 455.687 55.5887 457.508 55.5887 459.899C55.5887 462.289 55.1982 464.117 54.4174 465.382C53.6505 466.647 52.5211 467.279 51.0291 467.279C49.5511 467.279 48.4216 466.647 47.6408 465.382C46.8599 464.117 46.4695 462.289 46.4695 459.899C46.4695 457.522 46.8599 455.701 47.6408 454.436C48.4216 453.171 49.5511 452.539 51.0291 452.539ZM47.9545 459.899C47.9545 461.594 48.1079 462.922 48.4146 463.881L53.0579 454.645C52.5699 453.992 51.8936 453.665 51.0291 453.665C50.067 453.665 49.314 454.179 48.7702 455.208C48.2264 456.222 47.9545 457.786 47.9545 459.899ZM51.0291 466.133C52.0051 466.133 52.7651 465.625 53.3089 464.611C53.8527 463.582 54.1246 462.011 54.1246 459.899C54.1246 458.106 53.9503 456.716 53.6017 455.729L48.9584 465.048C49.4604 465.771 50.1506 466.133 51.0291 466.133Z" fill="url(#paint33_linear_175_198)" fill-opacity="0.6"/>
<path d="M52.284 489.793H55.3586V490.898H47.3898V489.793H50.9454V478.076L47.5571 480.098L46.9715 479.16L51.1546 476.575H52.284V489.793Z" fill="url(#paint34_linear_175_198)" fill-opacity="0.6"/>
<path d="M52.284 513.621H55.3586V514.726H47.3898V513.621H50.9454V501.904L47.5571 503.926L46.9715 502.988L51.1546 500.402H52.284V513.621Z" fill="url(#paint35_linear_175_198)" fill-opacity="0.6"/>
<path d="M51.0291 524.021C52.5211 524.021 53.6505 524.654 54.4174 525.919C55.1982 527.17 55.5887 528.99 55.5887 531.381C55.5887 533.772 55.1982 535.6 54.4174 536.864C53.6505 538.129 52.5211 538.762 51.0291 538.762C49.5511 538.762 48.4216 538.129 47.6408 536.864C46.8599 535.6 46.4695 533.772 46.4695 531.381C46.4695 529.004 46.8599 527.183 47.6408 525.919C48.4216 524.654 49.5511 524.021 51.0291 524.021ZM47.9545 531.381C47.9545 533.077 48.1079 534.404 48.4146 535.363L53.0579 526.127C52.5699 525.474 51.8936 525.147 51.0291 525.147C50.067 525.147 49.314 525.661 48.7702 526.69C48.2264 527.705 47.9545 529.268 47.9545 531.381ZM51.0291 537.615C52.0051 537.615 52.7651 537.108 53.3089 536.093C53.8527 535.064 54.1246 533.494 54.1246 531.381C54.1246 529.588 53.9503 528.198 53.6017 527.211L48.9584 536.531C49.4604 537.254 50.1506 537.615 51.0291 537.615Z" fill="url(#paint36_linear_175_198)" fill-opacity="0.6"/>
<path d="M52.284 561.276H55.3586V562.381H47.3898V561.276H50.9454V549.558L47.5571 551.581L46.9715 550.643L51.1546 548.057H52.284V561.276Z" fill="url(#paint37_linear_175_198)" fill-opacity="0.6"/>
<path d="M52.284 585.103H55.3586V586.208H47.3898V585.103H50.9454V573.386L47.5571 575.408L46.9715 574.47L51.1546 571.885H52.284V585.103Z" fill="url(#paint38_linear_175_198)" fill-opacity="0.6"/>
<path d="M51.0291 595.504C52.5211 595.504 53.6505 596.136 54.4174 597.401C55.1982 598.652 55.5887 600.473 55.5887 602.863C55.5887 605.254 55.1982 607.082 54.4174 608.347C53.6505 609.611 52.5211 610.244 51.0291 610.244C49.5511 610.244 48.4216 609.611 47.6408 608.347C46.8599 607.082 46.4695 605.254 46.4695 602.863C46.4695 600.487 46.8599 598.666 47.6408 597.401C48.4216 596.136 49.5511 595.504 51.0291 595.504ZM47.9545 602.863C47.9545 604.559 48.1079 605.886 48.4146 606.846L53.0579 597.609C52.5699 596.956 51.8936 596.629 51.0291 596.629C50.067 596.629 49.314 597.144 48.7702 598.172C48.2264 599.187 47.9545 600.751 47.9545 602.863ZM51.0291 609.097C52.0051 609.097 52.7651 608.59 53.3089 607.575C53.8527 606.547 54.1246 604.976 54.1246 602.863C54.1246 601.07 53.9503 599.68 53.6017 598.694L48.9584 608.013C49.4604 608.736 50.1506 609.097 51.0291 609.097Z" fill="url(#paint39_linear_175_198)" fill-opacity="0.6"/>
<path d="M52.284 632.758H55.3586V633.863H47.3898V632.758H50.9454V621.041L47.5571 623.063L46.9715 622.125L51.1546 619.54H52.284V632.758Z" fill="url(#paint40_linear_175_198)" fill-opacity="0.6"/>
<path d="M51.0291 643.159C52.5211 643.159 53.6505 643.791 54.4174 645.056C55.1982 646.307 55.5887 648.128 55.5887 650.518C55.5887 652.909 55.1982 654.737 54.4174 656.001C53.6505 657.266 52.5211 657.899 51.0291 657.899C49.5511 657.899 48.4216 657.266 47.6408 656.001C46.8599 654.737 46.4695 652.909 46.4695 650.518C46.4695 648.141 46.8599 646.321 47.6408 645.056C48.4216 643.791 49.5511 643.159 51.0291 643.159ZM47.9545 650.518C47.9545 652.214 48.1079 653.541 48.4146 654.5L53.0579 645.264C52.5699 644.611 51.8936 644.284 51.0291 644.284C50.067 644.284 49.314 644.799 48.7702 645.827C48.2264 646.842 47.9545 648.406 47.9545 650.518ZM51.0291 656.752C52.0051 656.752 52.7651 656.245 53.3089 655.23C53.8527 654.202 54.1246 652.631 54.1246 650.518C54.1246 648.725 53.9503 647.335 53.6017 646.348L48.9584 655.668C49.4604 656.391 50.1506 656.752 51.0291 656.752Z" fill="url(#paint41_linear_175_198)" fill-opacity="0.6"/>
<path d="M89.8722 428.712C91.3642 428.712 92.4936 429.344 93.2605 430.609C94.0413 431.86 94.4318 433.681 94.4318 436.071C94.4318 438.462 94.0413 440.29 93.2605 441.555C92.4936 442.819 91.3642 443.452 89.8722 443.452C88.3941 443.452 87.2647 442.819 86.4839 441.555C85.703 440.29 85.3126 438.462 85.3126 436.071C85.3126 433.695 85.703 431.874 86.4839 430.609C87.2647 429.344 88.3941 428.712 89.8722 428.712ZM86.7976 436.071C86.7976 437.767 86.951 439.094 87.2577 440.054L91.901 430.817C91.413 430.164 90.7367 429.837 89.8722 429.837C88.9101 429.837 88.1571 430.352 87.6133 431.38C87.0695 432.395 86.7976 433.959 86.7976 436.071ZM89.8722 442.305C90.8482 442.305 91.6082 441.798 92.152 440.783C92.6958 439.755 92.9677 438.184 92.9677 436.071C92.9677 434.278 92.7934 432.888 92.4448 431.902L87.8015 441.221C88.3035 441.944 88.9937 442.305 89.8722 442.305Z" fill="url(#paint42_linear_175_198)" fill-opacity="0.6"/>
<path d="M91.1271 465.966H94.2017V467.071H86.2329V465.966H89.7885V454.249L86.4002 456.271L85.8146 455.333L89.9977 452.748H91.1271V465.966Z" fill="url(#paint43_linear_175_198)" fill-opacity="0.6"/>
<path d="M91.1271 489.793H94.2017V490.898H86.2329V489.793H89.7885V478.076L86.4002 480.098L85.8146 479.16L89.9977 476.575H91.1271V489.793Z" fill="url(#paint44_linear_175_198)" fill-opacity="0.6"/>
<path d="M89.8722 500.194C91.3642 500.194 92.4936 500.826 93.2605 502.091C94.0413 503.342 94.4318 505.163 94.4318 507.554C94.4318 509.944 94.0413 511.772 93.2605 513.037C92.4936 514.302 91.3642 514.934 89.8722 514.934C88.3941 514.934 87.2647 514.302 86.4839 513.037C85.703 511.772 85.3126 509.944 85.3126 507.554C85.3126 505.177 85.703 503.356 86.4839 502.091C87.2647 500.826 88.3941 500.194 89.8722 500.194ZM86.7976 507.554C86.7976 509.249 86.951 510.577 87.2577 511.536L91.901 502.3C91.413 501.646 90.7367 501.32 89.8722 501.32C88.9101 501.32 88.1571 501.834 87.6133 502.863C87.0695 503.877 86.7976 505.441 86.7976 507.554ZM89.8722 513.787C90.8482 513.787 91.6082 513.28 92.152 512.266C92.6958 511.237 92.9677 509.666 92.9677 507.554C92.9677 505.761 92.7934 504.371 92.4448 503.384L87.8015 512.703C88.3035 513.426 88.9937 513.787 89.8722 513.787Z" fill="url(#paint45_linear_175_198)" fill-opacity="0.6"/>
<path d="M89.8722 524.021C91.3642 524.021 92.4936 524.654 93.2605 525.919C94.0413 527.17 94.4318 528.99 94.4318 531.381C94.4318 533.772 94.0413 535.6 93.2605 536.864C92.4936 538.129 91.3642 538.762 89.8722 538.762C88.3941 538.762 87.2647 538.129 86.4839 536.864C85.703 535.6 85.3126 533.772 85.3126 531.381C85.3126 529.004 85.703 527.183 86.4839 525.919C87.2647 524.654 88.3941 524.021 89.8722 524.021ZM86.7976 531.381C86.7976 533.077 86.951 534.404 87.2577 535.363L91.901 526.127C91.413 525.474 90.7367 525.147 89.8722 525.147C88.9101 525.147 88.1571 525.661 87.6133 526.69C87.0695 527.705 86.7976 529.268 86.7976 531.381ZM89.8722 537.615C90.8482 537.615 91.6082 537.108 92.152 536.093C92.6958 535.064 92.9677 533.494 92.9677 531.381C92.9677 529.588 92.7934 528.198 92.4448 527.211L87.8015 536.531C88.3035 537.254 88.9937 537.615 89.8722 537.615Z" fill="url(#paint46_linear_175_198)" fill-opacity="0.6"/>
<g opacity="0.6">
<path d="M916.518 103.92C917.942 103.92 919.019 104.527 919.751 105.74C920.496 106.941 920.868 108.688 920.868 110.982C920.868 113.277 920.496 115.031 919.751 116.244C919.019 117.458 917.942 118.065 916.518 118.065C915.108 118.065 914.031 117.458 913.286 116.244C912.541 115.031 912.168 113.277 912.168 110.982C912.168 108.701 912.541 106.954 913.286 105.74C914.031 104.527 915.108 103.92 916.518 103.92ZM913.585 110.982C913.585 112.61 913.731 113.884 914.024 114.804L918.454 105.94C917.988 105.313 917.343 105 916.518 105C915.6 105 914.882 105.494 914.363 106.481C913.845 107.454 913.585 108.955 913.585 110.982ZM916.518 116.965C917.45 116.965 918.174 116.478 918.693 115.504C919.212 114.517 919.472 113.01 919.472 110.982C919.472 109.262 919.305 107.928 918.973 106.981L914.543 115.924C915.022 116.618 915.68 116.965 916.518 116.965Z" fill="url(#paint47_linear_175_198)"/>
<path d="M917.716 139.671H920.649V140.731H913.046V139.671H916.439V128.426L913.206 130.367L912.647 129.467L916.638 126.986H917.716V139.671Z" fill="url(#paint48_linear_175_198)"/>
<path d="M916.518 149.652C917.942 149.652 919.019 150.259 919.751 151.473C920.496 152.673 920.868 154.42 920.868 156.715C920.868 159.009 920.496 160.763 919.751 161.977C919.019 163.19 917.942 163.797 916.518 163.797C915.108 163.797 914.031 163.19 913.286 161.977C912.541 160.763 912.168 159.009 912.168 156.715C912.168 154.434 912.541 152.686 913.286 151.473C914.031 150.259 915.108 149.652 916.518 149.652ZM913.585 156.715C913.585 158.342 913.731 159.616 914.024 160.536L918.454 151.673C917.988 151.046 917.343 150.732 916.518 150.732C915.6 150.732 914.882 151.226 914.363 152.213C913.845 153.187 913.585 154.687 913.585 156.715ZM916.518 162.697C917.45 162.697 918.174 162.21 918.693 161.236C919.212 160.249 919.472 158.742 919.472 156.715C919.472 154.994 919.305 153.66 918.973 152.713L914.543 161.656C915.022 162.35 915.68 162.697 916.518 162.697Z" fill="url(#paint49_linear_175_198)"/>
<path d="M917.716 185.403H920.649V186.463H913.046V185.403H916.439V174.159L913.206 176.099L912.647 175.199L916.638 172.718H917.716V185.403Z" fill="url(#paint50_linear_175_198)"/>
<path d="M917.716 208.269H920.649V209.329H913.046V208.269H916.439V197.025L913.206 198.965L912.647 198.065L916.638 195.584H917.716V208.269Z" fill="url(#paint51_linear_175_198)"/>
<path d="M916.518 218.25C917.942 218.25 919.019 218.857 919.751 220.071C920.496 221.271 920.868 223.019 920.868 225.313C920.868 227.607 920.496 229.361 919.751 230.575C919.019 231.789 917.942 232.396 916.518 232.396C915.108 232.396 914.031 231.789 913.286 230.575C912.541 229.361 912.168 227.607 912.168 225.313C912.168 223.032 912.541 221.285 913.286 220.071C914.031 218.857 915.108 218.25 916.518 218.25ZM913.585 225.313C913.585 226.94 913.731 228.214 914.024 229.134L918.454 220.271C917.988 219.644 917.343 219.33 916.518 219.33C915.6 219.33 914.882 219.824 914.363 220.811C913.845 221.785 913.585 223.285 913.585 225.313ZM916.518 231.295C917.45 231.295 918.174 230.808 918.693 229.835C919.212 228.848 919.472 227.34 919.472 225.313C919.472 223.592 919.305 222.258 918.973 221.311L914.543 230.255C915.022 230.948 915.68 231.295 916.518 231.295Z" fill="url(#paint52_linear_175_198)"/>
<path d="M917.716 254.001H920.649V255.062H913.046V254.001H916.439V242.757L913.206 244.698L912.647 243.797L916.638 241.316H917.716V254.001Z" fill="url(#paint53_linear_175_198)"/>
<path d="M916.518 263.982C917.942 263.982 919.019 264.589 919.751 265.803C920.496 267.003 920.868 268.751 920.868 271.045C920.868 273.339 920.496 275.093 919.751 276.307C919.019 277.521 917.942 278.128 916.518 278.128C915.108 278.128 914.031 277.521 913.286 276.307C912.541 275.093 912.168 273.339 912.168 271.045C912.168 268.764 912.541 267.017 913.286 265.803C914.031 264.589 915.108 263.982 916.518 263.982ZM913.585 271.045C913.585 272.672 913.731 273.946 914.024 274.867L918.454 266.003C917.988 265.376 917.343 265.063 916.518 265.063C915.6 265.063 914.882 265.556 914.363 266.543C913.845 267.517 913.585 269.018 913.585 271.045ZM916.518 277.027C917.45 277.027 918.174 276.541 918.693 275.567C919.212 274.58 919.472 273.072 919.472 271.045C919.472 269.324 919.305 267.99 918.973 267.043L914.543 275.987C915.022 276.681 915.68 277.027 916.518 277.027Z" fill="url(#paint54_linear_175_198)"/>
<path d="M916.518 286.848C917.942 286.848 919.019 287.455 919.751 288.669C920.496 289.87 920.868 291.617 920.868 293.911C920.868 296.205 920.496 297.959 919.751 299.173C919.019 300.387 917.942 300.994 916.518 300.994C915.108 300.994 914.031 300.387 913.286 299.173C912.541 297.959 912.168 296.205 912.168 293.911C912.168 291.63 912.541 289.883 913.286 288.669C914.031 287.455 915.108 286.848 916.518 286.848ZM913.585 293.911C913.585 295.538 913.731 296.812 914.024 297.733L918.454 288.869C917.988 288.242 917.343 287.929 916.518 287.929C915.6 287.929 914.882 288.422 914.363 289.409C913.845 290.383 913.585 291.884 913.585 293.911ZM916.518 299.893C917.45 299.893 918.174 299.407 918.693 298.433C919.212 297.446 919.472 295.939 919.472 293.911C919.472 292.19 919.305 290.857 918.973 289.91L914.543 298.853C915.022 299.547 915.68 299.893 916.518 299.893Z" fill="url(#paint55_linear_175_198)"/>
<path d="M917.716 322.599H920.649V323.66H913.046V322.599H916.439V311.355L913.206 313.296L912.647 312.395L916.638 309.915H917.716V322.599Z" fill="url(#paint56_linear_175_198)"/>
<path d="M916.518 332.581C917.942 332.581 919.019 333.187 919.751 334.401C920.496 335.602 920.868 337.349 920.868 339.643C920.868 341.938 920.496 343.692 919.751 344.905C919.019 346.119 917.942 346.726 916.518 346.726C915.108 346.726 914.031 346.119 913.286 344.905C912.541 343.692 912.168 341.938 912.168 339.643C912.168 337.362 912.541 335.615 913.286 334.401C914.031 333.187 915.108 332.581 916.518 332.581ZM913.585 339.643C913.585 341.271 913.731 342.544 914.024 343.465L918.454 334.601C917.988 333.974 917.343 333.661 916.518 333.661C915.6 333.661 914.882 334.154 914.363 335.142C913.845 336.115 913.585 337.616 913.585 339.643ZM916.518 345.626C917.45 345.626 918.174 345.139 918.693 344.165C919.212 343.178 919.472 341.671 919.472 339.643C919.472 337.923 919.305 336.589 918.973 335.642L914.543 344.585C915.022 345.279 915.68 345.626 916.518 345.626Z" fill="url(#paint57_linear_175_198)"/>
<path d="M917.716 368.332H920.649V369.392H913.046V368.332H916.439V357.087L913.206 359.028L912.647 358.128L916.638 355.647H917.716V368.332Z" fill="url(#paint58_linear_175_198)"/>
<path d="M917.716 391.198H920.649V392.258H913.046V391.198H916.439V379.953L913.206 381.894L912.647 380.994L916.638 378.513H917.716V391.198Z" fill="url(#paint59_linear_175_198)"/>
<path d="M953.576 149.652C954.999 149.652 956.076 150.259 956.808 151.473C957.553 152.673 957.925 154.42 957.925 156.715C957.925 159.009 957.553 160.763 956.808 161.977C956.076 163.19 954.999 163.797 953.576 163.797C952.165 163.797 951.088 163.19 950.343 161.977C949.598 160.763 949.226 159.009 949.226 156.715C949.226 154.434 949.598 152.686 950.343 151.473C951.088 150.259 952.165 149.652 953.576 149.652ZM950.642 156.715C950.642 158.342 950.789 159.616 951.081 160.536L955.511 151.673C955.045 151.046 954.4 150.732 953.576 150.732C952.658 150.732 951.939 151.226 951.421 152.213C950.902 153.187 950.642 154.687 950.642 156.715ZM953.576 162.697C954.507 162.697 955.232 162.21 955.751 161.236C956.269 160.249 956.529 158.742 956.529 156.715C956.529 154.994 956.362 153.66 956.03 152.713L951.6 161.656C952.079 162.35 952.737 162.697 953.576 162.697Z" fill="url(#paint60_linear_175_198)"/>
<path d="M954.773 185.403H957.706V186.463H950.104V185.403H953.496V174.159L950.263 176.099L949.704 175.199L953.695 172.718H954.773V185.403Z" fill="url(#paint61_linear_175_198)"/>
<path d="M953.576 195.384C954.999 195.384 956.076 195.991 956.808 197.205C957.553 198.405 957.925 200.153 957.925 202.447C957.925 204.741 957.553 206.495 956.808 207.709C956.076 208.923 954.999 209.53 953.576 209.53C952.165 209.53 951.088 208.923 950.343 207.709C949.598 206.495 949.226 204.741 949.226 202.447C949.226 200.166 949.598 198.419 950.343 197.205C951.088 195.991 952.165 195.384 953.576 195.384ZM950.642 202.447C950.642 204.074 950.789 205.348 951.081 206.268L955.511 197.405C955.045 196.778 954.4 196.464 953.576 196.464C952.658 196.464 951.939 196.958 951.421 197.945C950.902 198.919 950.642 200.419 950.642 202.447ZM953.576 208.429C954.507 208.429 955.232 207.942 955.751 206.969C956.269 205.981 956.529 204.474 956.529 202.447C956.529 200.726 956.362 199.392 956.03 198.445L951.6 207.389C952.079 208.082 952.737 208.429 953.576 208.429Z" fill="url(#paint62_linear_175_198)"/>
<path d="M953.576 218.25C954.999 218.25 956.076 218.857 956.808 220.071C957.553 221.271 957.925 223.019 957.925 225.313C957.925 227.607 957.553 229.361 956.808 230.575C956.076 231.789 954.999 232.396 953.576 232.396C952.165 232.396 951.088 231.789 950.343 230.575C949.598 229.361 949.226 227.607 949.226 225.313C949.226 223.032 949.598 221.285 950.343 220.071C951.088 218.857 952.165 218.25 953.576 218.25ZM950.642 225.313C950.642 226.94 950.789 228.214 951.081 229.134L955.511 220.271C955.045 219.644 954.4 219.33 953.576 219.33C952.658 219.33 951.939 219.824 951.421 220.811C950.902 221.785 950.642 223.285 950.642 225.313ZM953.576 231.295C954.507 231.295 955.232 230.808 955.751 229.835C956.269 228.848 956.529 227.34 956.529 225.313C956.529 223.592 956.362 222.258 956.03 221.311L951.6 230.255C952.079 230.948 952.737 231.295 953.576 231.295Z" fill="url(#paint63_linear_175_198)"/>
<path d="M954.773 254.001H957.706V255.062H950.104V254.001H953.496V242.757L950.263 244.698L949.704 243.797L953.695 241.316H954.773V254.001Z" fill="url(#paint64_linear_175_198)"/>
<path d="M953.576 263.982C954.999 263.982 956.076 264.589 956.808 265.803C957.553 267.003 957.925 268.751 957.925 271.045C957.925 273.339 957.553 275.093 956.808 276.307C956.076 277.521 954.999 278.128 953.576 278.128C952.165 278.128 951.088 277.521 950.343 276.307C949.598 275.093 949.226 273.339 949.226 271.045C949.226 268.764 949.598 267.017 950.343 265.803C951.088 264.589 952.165 263.982 953.576 263.982ZM950.642 271.045C950.642 272.672 950.789 273.946 951.081 274.867L955.511 266.003C955.045 265.376 954.4 265.063 953.576 265.063C952.658 265.063 951.939 265.556 951.421 266.543C950.902 267.517 950.642 269.018 950.642 271.045ZM953.576 277.027C954.507 277.027 955.232 276.541 955.751 275.567C956.269 274.58 956.529 273.072 956.529 271.045C956.529 269.324 956.362 267.99 956.03 267.043L951.6 275.987C952.079 276.681 952.737 277.027 953.576 277.027Z" fill="url(#paint65_linear_175_198)"/>
<path d="M954.773 299.733H957.706V300.794H950.104V299.733H953.496V288.489L950.263 290.43L949.704 289.529L953.695 287.048H954.773V299.733Z" fill="url(#paint66_linear_175_198)"/>
<path d="M953.576 309.714C954.999 309.714 956.076 310.321 956.808 311.535C957.553 312.736 957.925 314.483 957.925 316.777C957.925 319.071 957.553 320.825 956.808 322.039C956.076 323.253 954.999 323.86 953.576 323.86C952.165 323.86 951.088 323.253 950.343 322.039C949.598 320.825 949.226 319.071 949.226 316.777C949.226 314.496 949.598 312.749 950.343 311.535C951.088 310.321 952.165 309.714 953.576 309.714ZM950.642 316.777C950.642 318.404 950.789 319.678 951.081 320.599L955.511 311.735C955.045 311.108 954.4 310.795 953.576 310.795C952.658 310.795 951.939 311.288 951.421 312.275C950.902 313.249 950.642 314.75 950.642 316.777ZM953.576 322.76C954.507 322.76 955.232 322.273 955.751 321.299C956.269 320.312 956.529 318.805 956.529 316.777C956.529 315.057 956.362 313.723 956.03 312.776L951.6 321.719C952.079 322.413 952.737 322.76 953.576 322.76Z" fill="url(#paint67_linear_175_198)"/>
<path d="M953.576 332.581C954.999 332.581 956.076 333.187 956.808 334.401C957.553 335.602 957.925 337.349 957.925 339.643C957.925 341.938 957.553 343.692 956.808 344.905C956.076 346.119 954.999 346.726 953.576 346.726C952.165 346.726 951.088 346.119 950.343 344.905C949.598 343.692 949.226 341.938 949.226 339.643C949.226 337.362 949.598 335.615 950.343 334.401C951.088 333.187 952.165 332.581 953.576 332.581ZM950.642 339.643C950.642 341.271 950.789 342.544 951.081 343.465L955.511 334.601C955.045 333.974 954.4 333.661 953.576 333.661C952.658 333.661 951.939 334.154 951.421 335.142C950.902 336.115 950.642 337.616 950.642 339.643ZM953.576 345.626C954.507 345.626 955.232 345.139 955.751 344.165C956.269 343.178 956.529 341.671 956.529 339.643C956.529 337.923 956.362 336.589 956.03 335.642L951.6 344.585C952.079 345.279 952.737 345.626 953.576 345.626Z" fill="url(#paint68_linear_175_198)"/>
<path d="M954.773 368.332H957.706V369.392H950.104V368.332H953.496V357.087L950.263 359.028L949.704 358.128L953.695 355.647H954.773V368.332Z" fill="url(#paint69_linear_175_198)"/>
<path d="M953.576 378.313C954.999 378.313 956.076 378.92 956.808 380.133C957.553 381.334 957.925 383.081 957.925 385.375C957.925 387.67 957.553 389.424 956.808 390.638C956.076 391.851 954.999 392.458 953.576 392.458C952.165 392.458 951.088 391.851 950.343 390.638C949.598 389.424 949.226 387.67 949.226 385.375C949.226 383.095 949.598 381.347 950.343 380.133C951.088 378.92 952.165 378.313 953.576 378.313ZM950.642 385.375C950.642 387.003 950.789 388.277 951.081 389.197L955.511 380.334C955.045 379.707 954.4 379.393 953.576 379.393C952.658 379.393 951.939 379.887 951.421 380.874C950.902 381.847 950.642 383.348 950.642 385.375ZM953.576 391.358C954.507 391.358 955.232 390.871 955.751 389.897C956.269 388.91 956.529 387.403 956.529 385.375C956.529 383.655 956.362 382.321 956.03 381.374L951.6 390.317C952.079 391.011 952.737 391.358 953.576 391.358Z" fill="url(#paint70_linear_175_198)"/>
<path d="M954.773 414.064H957.706V415.124H950.104V414.064H953.496V402.819L950.263 404.76L949.704 403.86L953.695 401.379H954.773V414.064Z" fill="url(#paint71_linear_175_198)"/>
<path d="M954.773 436.93H957.706V437.99H950.104V436.93H953.496V425.686L950.263 427.626L949.704 426.726L953.695 424.245H954.773V436.93Z" fill="url(#paint72_linear_175_198)"/>
<path d="M897.99 172.518C899.413 172.518 900.491 173.125 901.222 174.339C901.967 175.539 902.34 177.286 902.34 179.581C902.34 181.875 901.967 183.629 901.222 184.843C900.491 186.057 899.413 186.663 897.99 186.663C896.58 186.663 895.502 186.057 894.757 184.843C894.012 183.629 893.64 181.875 893.64 179.581C893.64 177.3 894.012 175.552 894.757 174.339C895.502 173.125 896.58 172.518 897.99 172.518ZM895.056 179.581C895.056 181.208 895.203 182.482 895.495 183.402L899.925 174.539C899.46 173.912 898.814 173.598 897.99 173.598C897.072 173.598 896.353 174.092 895.835 175.079C895.316 176.053 895.056 177.553 895.056 179.581ZM897.99 185.563C898.921 185.563 899.646 185.076 900.165 184.102C900.683 183.115 900.943 181.608 900.943 179.581C900.943 177.86 900.777 176.526 900.444 175.579L896.014 184.523C896.493 185.216 897.152 185.563 897.99 185.563Z" fill="url(#paint73_linear_175_198)"/>
<path d="M897.99 195.384C899.413 195.384 900.491 195.991 901.222 197.205C901.967 198.405 902.34 200.153 902.34 202.447C902.34 204.741 901.967 206.495 901.222 207.709C900.491 208.923 899.413 209.53 897.99 209.53C896.58 209.53 895.502 208.923 894.757 207.709C894.012 206.495 893.64 204.741 893.64 202.447C893.64 200.166 894.012 198.419 894.757 197.205C895.502 195.991 896.58 195.384 897.99 195.384ZM895.056 202.447C895.056 204.074 895.203 205.348 895.495 206.268L899.925 197.405C899.46 196.778 898.814 196.464 897.99 196.464C897.072 196.464 896.353 196.958 895.835 197.945C895.316 198.919 895.056 200.419 895.056 202.447ZM897.99 208.429C898.921 208.429 899.646 207.942 900.165 206.969C900.683 205.981 900.943 204.474 900.943 202.447C900.943 200.726 900.777 199.392 900.444 198.445L896.014 207.389C896.493 208.082 897.152 208.429 897.99 208.429Z" fill="url(#paint74_linear_175_198)"/>
<path d="M899.187 231.135H902.12V232.196H894.518V231.135H897.91V219.891L894.677 221.831L894.119 220.931L898.109 218.45H899.187V231.135Z" fill="url(#paint75_linear_175_198)"/>
<path d="M897.99 241.116C899.413 241.116 900.491 241.723 901.222 242.937C901.967 244.137 902.34 245.885 902.34 248.179C902.34 250.473 901.967 252.227 901.222 253.441C900.491 254.655 899.413 255.262 897.99 255.262C896.58 255.262 895.502 254.655 894.757 253.441C894.012 252.227 893.64 250.473 893.64 248.179C893.64 245.898 894.012 244.151 894.757 242.937C895.502 241.723 896.58 241.116 897.99 241.116ZM895.056 248.179C895.056 249.806 895.203 251.08 895.495 252L899.925 243.137C899.46 242.51 898.814 242.197 897.99 242.197C897.072 242.197 896.353 242.69 895.835 243.677C895.316 244.651 895.056 246.151 895.056 248.179ZM897.99 254.161C898.921 254.161 899.646 253.674 900.165 252.701C900.683 251.714 900.943 250.206 900.943 248.179C900.943 246.458 900.777 245.124 900.444 244.177L896.014 253.121C896.493 253.814 897.152 254.161 897.99 254.161Z" fill="url(#paint76_linear_175_198)"/>
<path d="M899.187 276.867H902.12V277.928H894.518V276.867H897.91V265.623L894.677 267.564L894.119 266.663L898.109 264.182H899.187V276.867Z" fill="url(#paint77_linear_175_198)"/>
<path d="M899.187 299.733H902.12V300.794H894.518V299.733H897.91V288.489L894.677 290.43L894.119 289.529L898.109 287.048H899.187V299.733Z" fill="url(#paint78_linear_175_198)"/>
<path d="M936.244 139.671H939.177V140.731H931.575V139.671H934.967V128.426L931.735 130.367L931.176 129.467L935.167 126.986H936.244V139.671Z" fill="url(#paint79_linear_175_198)"/>
<path d="M935.047 149.652C936.47 149.652 937.548 150.259 938.279 151.473C939.024 152.673 939.397 154.42 939.397 156.715C939.397 159.009 939.024 160.763 938.279 161.977C937.548 163.19 936.47 163.797 935.047 163.797C933.637 163.797 932.559 163.19 931.814 161.977C931.069 160.763 930.697 159.009 930.697 156.715C930.697 154.434 931.069 152.686 931.814 151.473C932.559 150.259 933.637 149.652 935.047 149.652ZM932.114 156.715C932.114 158.342 932.26 159.616 932.553 160.536L936.982 151.673C936.517 151.046 935.872 150.732 935.047 150.732C934.129 150.732 933.411 151.226 932.892 152.213C932.373 153.187 932.114 154.687 932.114 156.715ZM935.047 162.697C935.978 162.697 936.703 162.21 937.222 161.236C937.741 160.249 938 158.742 938 156.715C938 154.994 937.834 153.66 937.501 152.713L933.071 161.656C933.55 162.35 934.209 162.697 935.047 162.697Z" fill="url(#paint80_linear_175_198)"/>
<path d="M936.244 185.403H939.177V186.463H931.575V185.403H934.967V174.159L931.735 176.099L931.176 175.199L935.167 172.718H936.244V185.403Z" fill="url(#paint81_linear_175_198)"/>
<path d="M936.244 208.269H939.177V209.329H931.575V208.269H934.967V197.025L931.735 198.965L931.176 198.065L935.167 195.584H936.244V208.269Z" fill="url(#paint82_linear_175_198)"/>
<path d="M935.047 218.25C936.47 218.25 937.548 218.857 938.279 220.071C939.024 221.271 939.397 223.019 939.397 225.313C939.397 227.607 939.024 229.361 938.279 230.575C937.548 231.789 936.47 232.396 935.047 232.396C933.637 232.396 932.559 231.789 931.814 230.575C931.069 229.361 930.697 227.607 930.697 225.313C930.697 223.032 931.069 221.285 931.814 220.071C932.559 218.857 933.637 218.25 935.047 218.25ZM932.114 225.313C932.114 226.94 932.26 228.214 932.553 229.134L936.982 220.271C936.517 219.644 935.872 219.33 935.047 219.33C934.129 219.33 933.411 219.824 932.892 220.811C932.373 221.785 932.114 223.285 932.114 225.313ZM935.047 231.295C935.978 231.295 936.703 230.808 937.222 229.835C937.741 228.848 938 227.34 938 225.313C938 223.592 937.834 222.258 937.501 221.311L933.071 230.255C933.55 230.948 934.209 231.295 935.047 231.295Z" fill="url(#paint83_linear_175_198)"/>
<path d="M936.244 254.001H939.177V255.062H931.575V254.001H934.967V242.757L931.735 244.698L931.176 243.797L935.167 241.316H936.244V254.001Z" fill="url(#paint84_linear_175_198)"/>
<path d="M936.244 276.867H939.177V277.928H931.575V276.867H934.967V265.623L931.735 267.564L931.176 266.663L935.167 264.182H936.244V276.867Z" fill="url(#paint85_linear_175_198)"/>
<path d="M935.047 286.848C936.47 286.848 937.548 287.455 938.279 288.669C939.024 289.87 939.397 291.617 939.397 293.911C939.397 296.205 939.024 297.959 938.279 299.173C937.548 300.387 936.47 300.994 935.047 300.994C933.637 300.994 932.559 300.387 931.814 299.173C931.069 297.959 930.697 296.205 930.697 293.911C930.697 291.63 931.069 289.883 931.814 288.669C932.559 287.455 933.637 286.848 935.047 286.848ZM932.114 293.911C932.114 295.538 932.26 296.812 932.553 297.733L936.982 288.869C936.517 288.242 935.872 287.929 935.047 287.929C934.129 287.929 933.411 288.422 932.892 289.409C932.373 290.383 932.114 291.884 932.114 293.911ZM935.047 299.893C935.978 299.893 936.703 299.407 937.222 298.433C937.741 297.446 938 295.939 938 293.911C938 292.19 937.834 290.857 937.501 289.91L933.071 298.853C933.55 299.547 934.209 299.893 935.047 299.893Z" fill="url(#paint86_linear_175_198)"/>
<path d="M936.244 322.599H939.177V323.66H931.575V322.599H934.967V311.355L931.735 313.296L931.176 312.395L935.167 309.915H936.244V322.599Z" fill="url(#paint87_linear_175_198)"/>
<path d="M935.047 332.581C936.47 332.581 937.548 333.187 938.279 334.401C939.024 335.602 939.397 337.349 939.397 339.643C939.397 341.938 939.024 343.692 938.279 344.905C937.548 346.119 936.47 346.726 935.047 346.726C933.637 346.726 932.559 346.119 931.814 344.905C931.069 343.692 930.697 341.938 930.697 339.643C930.697 337.362 931.069 335.615 931.814 334.401C932.559 333.187 933.637 332.581 935.047 332.581ZM932.114 339.643C932.114 341.271 932.26 342.544 932.553 343.465L936.982 334.601C936.517 333.974 935.872 333.661 935.047 333.661C934.129 333.661 933.411 334.154 932.892 335.142C932.373 336.115 932.114 337.616 932.114 339.643ZM935.047 345.626C935.978 345.626 936.703 345.139 937.222 344.165C937.741 343.178 938 341.671 938 339.643C938 337.923 937.834 336.589 937.501 335.642L933.071 344.585C933.55 345.279 934.209 345.626 935.047 345.626Z" fill="url(#paint88_linear_175_198)"/>
<path d="M972.104 126.786C973.528 126.786 974.605 127.393 975.337 128.606C976.082 129.807 976.454 131.554 976.454 133.848C976.454 136.143 976.082 137.897 975.337 139.111C974.605 140.324 973.528 140.931 972.104 140.931C970.694 140.931 969.617 140.324 968.872 139.111C968.127 137.897 967.754 136.143 967.754 133.848C967.754 131.568 968.127 129.82 968.872 128.606C969.617 127.393 970.694 126.786 972.104 126.786ZM969.171 133.848C969.171 135.476 969.317 136.75 969.61 137.67L974.04 128.806C973.574 128.18 972.929 127.866 972.104 127.866C971.186 127.866 970.468 128.36 969.949 129.347C969.43 130.32 969.171 131.821 969.171 133.848ZM972.104 139.831C973.035 139.831 973.76 139.344 974.279 138.37C974.798 137.383 975.057 135.876 975.057 133.848C975.057 132.128 974.891 130.794 974.558 129.847L970.129 138.79C970.608 139.484 971.266 139.831 972.104 139.831Z" fill="url(#paint89_linear_175_198)"/>
<path d="M973.301 162.537H976.235V163.597H968.632V162.537H972.024V151.292L968.792 153.233L968.233 152.333L972.224 149.852H973.301V162.537Z" fill="url(#paint90_linear_175_198)"/>
<path d="M973.301 185.403H976.235V186.463H968.632V185.403H972.024V174.159L968.792 176.099L968.233 175.199L972.224 172.718H973.301V185.403Z" fill="url(#paint91_linear_175_198)"/>
<path d="M972.104 195.384C973.528 195.384 974.605 195.991 975.337 197.205C976.082 198.405 976.454 200.153 976.454 202.447C976.454 204.741 976.082 206.495 975.337 207.709C974.605 208.923 973.528 209.53 972.104 209.53C970.694 209.53 969.617 208.923 968.872 207.709C968.127 206.495 967.754 204.741 967.754 202.447C967.754 200.166 968.127 198.419 968.872 197.205C969.617 195.991 970.694 195.384 972.104 195.384ZM969.171 202.447C969.171 204.074 969.317 205.348 969.61 206.268L974.04 197.405C973.574 196.778 972.929 196.464 972.104 196.464C971.186 196.464 970.468 196.958 969.949 197.945C969.43 198.919 969.171 200.419 969.171 202.447ZM972.104 208.429C973.035 208.429 973.76 207.942 974.279 206.969C974.798 205.981 975.057 204.474 975.057 202.447C975.057 200.726 974.891 199.392 974.558 198.445L970.129 207.389C970.608 208.082 971.266 208.429 972.104 208.429Z" fill="url(#paint92_linear_175_198)"/>
<path d="M972.104 218.25C973.528 218.25 974.605 218.857 975.337 220.071C976.082 221.271 976.454 223.019 976.454 225.313C976.454 227.607 976.082 229.361 975.337 230.575C974.605 231.789 973.528 232.396 972.104 232.396C970.694 232.396 969.617 231.789 968.872 230.575C968.127 229.361 967.754 227.607 967.754 225.313C967.754 223.032 968.127 221.285 968.872 220.071C969.617 218.857 970.694 218.25 972.104 218.25ZM969.171 225.313C969.171 226.94 969.317 228.214 969.61 229.134L974.04 220.271C973.574 219.644 972.929 219.33 972.104 219.33C971.186 219.33 970.468 219.824 969.949 220.811C969.43 221.785 969.171 223.285 969.171 225.313ZM972.104 231.295C973.035 231.295 973.76 230.808 974.279 229.835C974.798 228.848 975.057 227.34 975.057 225.313C975.057 223.592 974.891 222.258 974.558 221.311L970.129 230.255C970.608 230.948 971.266 231.295 972.104 231.295Z" fill="url(#paint93_linear_175_198)"/>
</g>
<defs>
<filter id="filter0_f_175_198" x="-559.19" y="-583.19" width="2138.38" height="1502.63" filterUnits="userSpaceOnUse" color-interpolation-filters="sRGB">
<feFlood flood-opacity="0" result="BackgroundImageFix"/>
<feBlend mode="normal" in="SourceGraphic" in2="BackgroundImageFix" result="shape"/>
<feGaussianBlur stdDeviation="200.095" result="effect1_foregroundBlur_175_198"/>
</filter>
<linearGradient id="paint0_linear_175_198" x1="51.0291" y1="404.884" x2="51.0291" y2="717.266" gradientUnits="userSpaceOnUse">
<stop stop-color="#F7DD43"/>
<stop offset="1" stop-color="#F7DD43" stop-opacity="0"/>
</linearGradient>
<linearGradient id="paint1_linear_175_198" x1="51.0291" y1="404.884" x2="51.0291" y2="717.266" gradientUnits="userSpaceOnUse">
<stop stop-color="#F7DD43"/>
<stop offset="1" stop-color="#F7DD43" stop-opacity="0"/>
</linearGradient>
<linearGradient id="paint2_linear_175_198" x1="51.0291" y1="404.884" x2="51.0291" y2="717.266" gradientUnits="userSpaceOnUse">
<stop stop-color="#F7DD43"/>
<stop offset="1" stop-color="#F7DD43" stop-opacity="0"/>
</linearGradient>
<linearGradient id="paint3_linear_175_198" x1="51.0291" y1="404.884" x2="51.0291" y2="717.266" gradientUnits="userSpaceOnUse">
<stop stop-color="#F7DD43"/>
<stop offset="1" stop-color="#F7DD43" stop-opacity="0"/>
</linearGradient>
<linearGradient id="paint4_linear_175_198" x1="51.0291" y1="404.884" x2="51.0291" y2="717.266" gradientUnits="userSpaceOnUse">
<stop stop-color="#F7DD43"/>
<stop offset="1" stop-color="#F7DD43" stop-opacity="0"/>
</linearGradient>
<linearGradient id="paint5_linear_175_198" x1="51.0291" y1="404.884" x2="51.0291" y2="717.266" gradientUnits="userSpaceOnUse">
<stop stop-color="#F7DD43"/>
<stop offset="1" stop-color="#F7DD43" stop-opacity="0"/>
</linearGradient>
<linearGradient id="paint6_linear_175_198" x1="51.0291" y1="404.884" x2="51.0291" y2="717.266" gradientUnits="userSpaceOnUse">
<stop stop-color="#F7DD43"/>
<stop offset="1" stop-color="#F7DD43" stop-opacity="0"/>
</linearGradient>
<linearGradient id="paint7_linear_175_198" x1="51.0291" y1="404.884" x2="51.0291" y2="717.266" gradientUnits="userSpaceOnUse">
<stop stop-color="#F7DD43"/>
<stop offset="1" stop-color="#F7DD43" stop-opacity="0"/>
</linearGradient>
<linearGradient id="paint8_linear_175_198" x1="51.0291" y1="404.884" x2="51.0291" y2="717.266" gradientUnits="userSpaceOnUse">
<stop stop-color="#F7DD43"/>
<stop offset="1" stop-color="#F7DD43" stop-opacity="0"/>
</linearGradient>
<linearGradient id="paint9_linear_175_198" x1="51.0291" y1="404.884" x2="51.0291" y2="717.266" gradientUnits="userSpaceOnUse">
<stop stop-color="#F7DD43"/>
<stop offset="1" stop-color="#F7DD43" stop-opacity="0"/>
</linearGradient>
<linearGradient id="paint10_linear_175_198" x1="51.0291" y1="404.884" x2="51.0291" y2="717.266" gradientUnits="userSpaceOnUse">
<stop stop-color="#F7DD43"/>
<stop offset="1" stop-color="#F7DD43" stop-opacity="0"/>
</linearGradient>
<linearGradient id="paint11_linear_175_198" x1="51.0291" y1="404.884" x2="51.0291" y2="717.266" gradientUnits="userSpaceOnUse">
<stop stop-color="#F7DD43"/>
<stop offset="1" stop-color="#F7DD43" stop-opacity="0"/>
</linearGradient>
<linearGradient id="paint12_linear_175_198" x1="51.0291" y1="404.884" x2="51.0291" y2="717.266" gradientUnits="userSpaceOnUse">
<stop stop-color="#F7DD43"/>
<stop offset="1" stop-color="#F7DD43" stop-opacity="0"/>
</linearGradient>
<linearGradient id="paint13_linear_175_198" x1="51.0291" y1="404.884" x2="51.0291" y2="717.266" gradientUnits="userSpaceOnUse">
<stop stop-color="#F7DD43"/>
<stop offset="1" stop-color="#F7DD43" stop-opacity="0"/>
</linearGradient>
<linearGradient id="paint14_linear_175_198" x1="51.0291" y1="404.884" x2="51.0291" y2="717.266" gradientUnits="userSpaceOnUse">
<stop stop-color="#F7DD43"/>
<stop offset="1" stop-color="#F7DD43" stop-opacity="0"/>
</linearGradient>
<linearGradient id="paint15_linear_175_198" x1="51.0291" y1="404.884" x2="51.0291" y2="717.266" gradientUnits="userSpaceOnUse">
<stop stop-color="#F7DD43"/>
<stop offset="1" stop-color="#F7DD43" stop-opacity="0"/>
</linearGradient>
<linearGradient id="paint16_linear_175_198" x1="51.0291" y1="404.884" x2="51.0291" y2="717.266" gradientUnits="userSpaceOnUse">
<stop stop-color="#F7DD43"/>
<stop offset="1" stop-color="#F7DD43" stop-opacity="0"/>
</linearGradient>
<linearGradient id="paint17_linear_175_198" x1="51.0291" y1="404.884" x2="51.0291" y2="717.266" gradientUnits="userSpaceOnUse">
<stop stop-color="#F7DD43"/>
<stop offset="1" stop-color="#F7DD43" stop-opacity="0"/>
</linearGradient>
<linearGradient id="paint18_linear_175_198" x1="51.0291" y1="404.884" x2="51.0291" y2="717.266" gradientUnits="userSpaceOnUse">
<stop stop-color="#F7DD43"/>
<stop offset="1" stop-color="#F7DD43" stop-opacity="0"/>
</linearGradient>
<linearGradient id="paint19_linear_175_198" x1="51.0291" y1="404.884" x2="51.0291" y2="717.266" gradientUnits="userSpaceOnUse">
<stop stop-color="#F7DD43"/>
<stop offset="1" stop-color="#F7DD43" stop-opacity="0"/>
</linearGradient>
<linearGradient id="paint20_linear_175_198" x1="51.0291" y1="404.884" x2="51.0291" y2="717.266" gradientUnits="userSpaceOnUse">
<stop stop-color="#F7DD43"/>
<stop offset="1" stop-color="#F7DD43" stop-opacity="0"/>
</linearGradient>
<linearGradient id="paint21_linear_175_198" x1="51.0291" y1="404.884" x2="51.0291" y2="717.266" gradientUnits="userSpaceOnUse">
<stop stop-color="#F7DD43"/>
<stop offset="1" stop-color="#F7DD43" stop-opacity="0"/>
</linearGradient>
<linearGradient id="paint22_linear_175_198" x1="51.0291" y1="404.884" x2="51.0291" y2="717.266" gradientUnits="userSpaceOnUse">
<stop stop-color="#F7DD43"/>
<stop offset="1" stop-color="#F7DD43" stop-opacity="0"/>
</linearGradient>
<linearGradient id="paint23_linear_175_198" x1="51.0291" y1="404.884" x2="51.0291" y2="717.266" gradientUnits="userSpaceOnUse">
<stop stop-color="#F7DD43"/>
<stop offset="1" stop-color="#F7DD43" stop-opacity="0"/>
</linearGradient>
<linearGradient id="paint24_linear_175_198" x1="51.0291" y1="404.884" x2="51.0291" y2="717.266" gradientUnits="userSpaceOnUse">
<stop stop-color="#F7DD43"/>
<stop offset="1" stop-color="#F7DD43" stop-opacity="0"/>
</linearGradient>
<linearGradient id="paint25_linear_175_198" x1="51.0291" y1="404.884" x2="51.0291" y2="717.266" gradientUnits="userSpaceOnUse">
<stop stop-color="#F7DD43"/>
<stop offset="1" stop-color="#F7DD43" stop-opacity="0"/>
</linearGradient>
<linearGradient id="paint26_linear_175_198" x1="51.0291" y1="404.884" x2="51.0291" y2="717.266" gradientUnits="userSpaceOnUse">
<stop stop-color="#F7DD43"/>
<stop offset="1" stop-color="#F7DD43" stop-opacity="0"/>
</linearGradient>
<linearGradient id="paint27_linear_175_198" x1="51.0291" y1="404.884" x2="51.0291" y2="717.266" gradientUnits="userSpaceOnUse">
<stop stop-color="#F7DD43"/>
<stop offset="1" stop-color="#F7DD43" stop-opacity="0"/>
</linearGradient>
<linearGradient id="paint28_linear_175_198" x1="51.0291" y1="404.884" x2="51.0291" y2="717.266" gradientUnits="userSpaceOnUse">
<stop stop-color="#F7DD43"/>
<stop offset="1" stop-color="#F7DD43" stop-opacity="0"/>
</linearGradient>
<linearGradient id="paint29_linear_175_198" x1="51.0291" y1="404.884" x2="51.0291" y2="717.266" gradientUnits="userSpaceOnUse">
<stop stop-color="#F7DD43"/>
<stop offset="1" stop-color="#F7DD43" stop-opacity="0"/>
</linearGradient>
<linearGradient id="paint30_linear_175_198" x1="51.0291" y1="404.884" x2="51.0291" y2="717.266" gradientUnits="userSpaceOnUse">
<stop stop-color="#F7DD43"/>
<stop offset="1" stop-color="#F7DD43" stop-opacity="0"/>
</linearGradient>
<linearGradient id="paint31_linear_175_198" x1="51.0291" y1="404.884" x2="51.0291" y2="717.266" gradientUnits="userSpaceOnUse">
<stop stop-color="#F7DD43"/>
<stop offset="1" stop-color="#F7DD43" stop-opacity="0"/>
</linearGradient>
<linearGradient id="paint32_linear_175_198" x1="51.0291" y1="404.884" x2="51.0291" y2="717.266" gradientUnits="userSpaceOnUse">
<stop stop-color="#F7DD43"/>
<stop offset="1" stop-color="#F7DD43" stop-opacity="0"/>
</linearGradient>
<linearGradient id="paint33_linear_175_198" x1="51.0291" y1="404.884" x2="51.0291" y2="717.266" gradientUnits="userSpaceOnUse">
<stop stop-color="#F7DD43"/>
<stop offset="1" stop-color="#F7DD43" stop-opacity="0"/>
</linearGradient>
<linearGradient id="paint34_linear_175_198" x1="51.0291" y1="404.884" x2="51.0291" y2="717.266" gradientUnits="userSpaceOnUse">
<stop stop-color="#F7DD43"/>
<stop offset="1" stop-color="#F7DD43" stop-opacity="0"/>
</linearGradient>
<linearGradient id="paint35_linear_175_198" x1="51.0291" y1="404.884" x2="51.0291" y2="717.266" gradientUnits="userSpaceOnUse">
<stop stop-color="#F7DD43"/>
<stop offset="1" stop-color="#F7DD43" stop-opacity="0"/>
</linearGradient>
<linearGradient id="paint36_linear_175_198" x1="51.0291" y1="404.884" x2="51.0291" y2="717.266" gradientUnits="userSpaceOnUse">
<stop stop-color="#F7DD43"/>
<stop offset="1" stop-color="#F7DD43" stop-opacity="0"/>
</linearGradient>
<linearGradient id="paint37_linear_175_198" x1="51.0291" y1="404.884" x2="51.0291" y2="717.266" gradientUnits="userSpaceOnUse">
<stop stop-color="#F7DD43"/>
<stop offset="1" stop-color="#F7DD43" stop-opacity="0"/>
</linearGradient>
<linearGradient id="paint38_linear_175_198" x1="51.0291" y1="404.884" x2="51.0291" y2="717.266" gradientUnits="userSpaceOnUse">
<stop stop-color="#F7DD43"/>
<stop offset="1" stop-color="#F7DD43" stop-opacity="0"/>
</linearGradient>
<linearGradient id="paint39_linear_175_198" x1="51.0291" y1="404.884" x2="51.0291" y2="717.266" gradientUnits="userSpaceOnUse">
<stop stop-color="#F7DD43"/>
<stop offset="1" stop-color="#F7DD43" stop-opacity="0"/>
</linearGradient>
<linearGradient id="paint40_linear_175_198" x1="51.0291" y1="404.884" x2="51.0291" y2="717.266" gradientUnits="userSpaceOnUse">
<stop stop-color="#F7DD43"/>
<stop offset="1" stop-color="#F7DD43" stop-opacity="0"/>
</linearGradient>
<linearGradient id="paint41_linear_175_198" x1="51.0291" y1="404.884" x2="51.0291" y2="717.266" gradientUnits="userSpaceOnUse">
<stop stop-color="#F7DD43"/>
<stop offset="1" stop-color="#F7DD43" stop-opacity="0"/>
</linearGradient>
<linearGradient id="paint42_linear_175_198" x1="51.0291" y1="404.884" x2="51.0291" y2="717.266" gradientUnits="userSpaceOnUse">
<stop stop-color="#F7DD43"/>
<stop offset="1" stop-color="#F7DD43" stop-opacity="0"/>
</linearGradient>
<linearGradient id="paint43_linear_175_198" x1="51.0291" y1="404.884" x2="51.0291" y2="717.266" gradientUnits="userSpaceOnUse">
<stop stop-color="#F7DD43"/>
<stop offset="1" stop-color="#F7DD43" stop-opacity="0"/>
</linearGradient>
<linearGradient id="paint44_linear_175_198" x1="51.0291" y1="404.884" x2="51.0291" y2="717.266" gradientUnits="userSpaceOnUse">
<stop stop-color="#F7DD43"/>
<stop offset="1" stop-color="#F7DD43" stop-opacity="0"/>
</linearGradient>
<linearGradient id="paint45_linear_175_198" x1="51.0291" y1="404.884" x2="51.0291" y2="717.266" gradientUnits="userSpaceOnUse">
<stop stop-color="#F7DD43"/>
<stop offset="1" stop-color="#F7DD43" stop-opacity="0"/>
</linearGradient>
<linearGradient id="paint46_linear_175_198" x1="51.0291" y1="404.884" x2="51.0291" y2="717.266" gradientUnits="userSpaceOnUse">
<stop stop-color="#F7DD43"/>
<stop offset="1" stop-color="#F7DD43" stop-opacity="0"/>
</linearGradient>
<linearGradient id="paint47_linear_175_198" x1="935.047" y1="103.92" x2="935.047" y2="403.698" gradientUnits="userSpaceOnUse">
<stop stop-color="#F7DD43"/>
<stop offset="1" stop-color="#F7DD43" stop-opacity="0"/>
</linearGradient>
<linearGradient id="paint48_linear_175_198" x1="935.047" y1="103.92" x2="935.047" y2="403.698" gradientUnits="userSpaceOnUse">
<stop stop-color="#F7DD43"/>
<stop offset="1" stop-color="#F7DD43" stop-opacity="0"/>
</linearGradient>
<linearGradient id="paint49_linear_175_198" x1="935.047" y1="103.92" x2="935.047" y2="403.698" gradientUnits="userSpaceOnUse">
<stop stop-color="#F7DD43"/>
<stop offset="1" stop-color="#F7DD43" stop-opacity="0"/>
</linearGradient>
<linearGradient id="paint50_linear_175_198" x1="935.047" y1="103.92" x2="935.047" y2="403.698" gradientUnits="userSpaceOnUse">
<stop stop-color="#F7DD43"/>
<stop offset="1" stop-color="#F7DD43" stop-opacity="0"/>
</linearGradient>
<linearGradient id="paint51_linear_175_198" x1="935.047" y1="103.92" x2="935.047" y2="403.698" gradientUnits="userSpaceOnUse">
<stop stop-color="#F7DD43"/>
<stop offset="1" stop-color="#F7DD43" stop-opacity="0"/>
</linearGradient>
<linearGradient id="paint52_linear_175_198" x1="935.047" y1="103.92" x2="935.047" y2="403.698" gradientUnits="userSpaceOnUse">
<stop stop-color="#F7DD43"/>
<stop offset="1" stop-color="#F7DD43" stop-opacity="0"/>
</linearGradient>
<linearGradient id="paint53_linear_175_198" x1="935.047" y1="103.92" x2="935.047" y2="403.698" gradientUnits="userSpaceOnUse">
<stop stop-color="#F7DD43"/>
<stop offset="1" stop-color="#F7DD43" stop-opacity="0"/>
</linearGradient>
<linearGradient id="paint54_linear_175_198" x1="935.047" y1="103.92" x2="935.047" y2="403.698" gradientUnits="userSpaceOnUse">
<stop stop-color="#F7DD43"/>
<stop offset="1" stop-color="#F7DD43" stop-opacity="0"/>
</linearGradient>
<linearGradient id="paint55_linear_175_198" x1="935.047" y1="103.92" x2="935.047" y2="403.698" gradientUnits="userSpaceOnUse">
<stop stop-color="#F7DD43"/>
<stop offset="1" stop-color="#F7DD43" stop-opacity="0"/>
</linearGradient>
<linearGradient id="paint56_linear_175_198" x1="935.047" y1="103.92" x2="935.047" y2="403.698" gradientUnits="userSpaceOnUse">
<stop stop-color="#F7DD43"/>
<stop offset="1" stop-color="#F7DD43" stop-opacity="0"/>
</linearGradient>
<linearGradient id="paint57_linear_175_198" x1="935.047" y1="103.92" x2="935.047" y2="403.698" gradientUnits="userSpaceOnUse">
<stop stop-color="#F7DD43"/>
<stop offset="1" stop-color="#F7DD43" stop-opacity="0"/>
</linearGradient>
<linearGradient id="paint58_linear_175_198" x1="935.047" y1="103.92" x2="935.047" y2="403.698" gradientUnits="userSpaceOnUse">
<stop stop-color="#F7DD43"/>
<stop offset="1" stop-color="#F7DD43" stop-opacity="0"/>
</linearGradient>
<linearGradient id="paint59_linear_175_198" x1="935.047" y1="103.92" x2="935.047" y2="403.698" gradientUnits="userSpaceOnUse">
<stop stop-color="#F7DD43"/>
<stop offset="1" stop-color="#F7DD43" stop-opacity="0"/>
</linearGradient>
<linearGradient id="paint60_linear_175_198" x1="935.047" y1="103.92" x2="935.047" y2="403.698" gradientUnits="userSpaceOnUse">
<stop stop-color="#F7DD43"/>
<stop offset="1" stop-color="#F7DD43" stop-opacity="0"/>
</linearGradient>
<linearGradient id="paint61_linear_175_198" x1="935.047" y1="103.92" x2="935.047" y2="403.698" gradientUnits="userSpaceOnUse">
<stop stop-color="#F7DD43"/>
<stop offset="1" stop-color="#F7DD43" stop-opacity="0"/>
</linearGradient>
<linearGradient id="paint62_linear_175_198" x1="935.047" y1="103.92" x2="935.047" y2="403.698" gradientUnits="userSpaceOnUse">
<stop stop-color="#F7DD43"/>
<stop offset="1" stop-color="#F7DD43" stop-opacity="0"/>
</linearGradient>
<linearGradient id="paint63_linear_175_198" x1="935.047" y1="103.92" x2="935.047" y2="403.698" gradientUnits="userSpaceOnUse">
<stop stop-color="#F7DD43"/>
<stop offset="1" stop-color="#F7DD43" stop-opacity="0"/>
</linearGradient>
<linearGradient id="paint64_linear_175_198" x1="935.047" y1="103.92" x2="935.047" y2="403.698" gradientUnits="userSpaceOnUse">
<stop stop-color="#F7DD43"/>
<stop offset="1" stop-color="#F7DD43" stop-opacity="0"/>
</linearGradient>
<linearGradient id="paint65_linear_175_198" x1="935.047" y1="103.92" x2="935.047" y2="403.698" gradientUnits="userSpaceOnUse">
<stop stop-color="#F7DD43"/>
<stop offset="1" stop-color="#F7DD43" stop-opacity="0"/>
</linearGradient>
<linearGradient id="paint66_linear_175_198" x1="935.047" y1="103.92" x2="935.047" y2="403.698" gradientUnits="userSpaceOnUse">
<stop stop-color="#F7DD43"/>
<stop offset="1" stop-color="#F7DD43" stop-opacity="0"/>
</linearGradient>
<linearGradient id="paint67_linear_175_198" x1="935.047" y1="103.92" x2="935.047" y2="403.698" gradientUnits="userSpaceOnUse">
<stop stop-color="#F7DD43"/>
<stop offset="1" stop-color="#F7DD43" stop-opacity="0"/>
</linearGradient>
<linearGradient id="paint68_linear_175_198" x1="935.047" y1="103.92" x2="935.047" y2="403.698" gradientUnits="userSpaceOnUse">
<stop stop-color="#F7DD43"/>
<stop offset="1" stop-color="#F7DD43" stop-opacity="0"/>
</linearGradient>
<linearGradient id="paint69_linear_175_198" x1="935.047" y1="103.92" x2="935.047" y2="403.698" gradientUnits="userSpaceOnUse">
<stop stop-color="#F7DD43"/>
<stop offset="1" stop-color="#F7DD43" stop-opacity="0"/>
</linearGradient>
<linearGradient id="paint70_linear_175_198" x1="935.047" y1="103.92" x2="935.047" y2="403.698" gradientUnits="userSpaceOnUse">
<stop stop-color="#F7DD43"/>
<stop offset="1" stop-color="#F7DD43" stop-opacity="0"/>
</linearGradient>
<linearGradient id="paint71_linear_175_198" x1="935.047" y1="103.92" x2="935.047" y2="403.698" gradientUnits="userSpaceOnUse">
<stop stop-color="#F7DD43"/>
<stop offset="1" stop-color="#F7DD43" stop-opacity="0"/>
</linearGradient>
<linearGradient id="paint72_linear_175_198" x1="935.047" y1="103.92" x2="935.047" y2="403.698" gradientUnits="userSpaceOnUse">
<stop stop-color="#F7DD43"/>
<stop offset="1" stop-color="#F7DD43" stop-opacity="0"/>
</linearGradient>
<linearGradient id="paint73_linear_175_198" x1="935.047" y1="103.92" x2="935.047" y2="403.698" gradientUnits="userSpaceOnUse">
<stop stop-color="#F7DD43"/>
<stop offset="1" stop-color="#F7DD43" stop-opacity="0"/>
</linearGradient>
<linearGradient id="paint74_linear_175_198" x1="935.047" y1="103.92" x2="935.047" y2="403.698" gradientUnits="userSpaceOnUse">
<stop stop-color="#F7DD43"/>
<stop offset="1" stop-color="#F7DD43" stop-opacity="0"/>
</linearGradient>
<linearGradient id="paint75_linear_175_198" x1="935.047" y1="103.92" x2="935.047" y2="403.698" gradientUnits="userSpaceOnUse">
<stop stop-color="#F7DD43"/>
<stop offset="1" stop-color="#F7DD43" stop-opacity="0"/>
</linearGradient>
<linearGradient id="paint76_linear_175_198" x1="935.047" y1="103.92" x2="935.047" y2="403.698" gradientUnits="userSpaceOnUse">
<stop stop-color="#F7DD43"/>
<stop offset="1" stop-color="#F7DD43" stop-opacity="0"/>
</linearGradient>
<linearGradient id="paint77_linear_175_198" x1="935.047" y1="103.92" x2="935.047" y2="403.698" gradientUnits="userSpaceOnUse">
<stop stop-color="#F7DD43"/>
<stop offset="1" stop-color="#F7DD43" stop-opacity="0"/>
</linearGradient>
<linearGradient id="paint78_linear_175_198" x1="935.047" y1="103.92" x2="935.047" y2="403.698" gradientUnits="userSpaceOnUse">
<stop stop-color="#F7DD43"/>
<stop offset="1" stop-color="#F7DD43" stop-opacity="0"/>
</linearGradient>
<linearGradient id="paint79_linear_175_198" x1="935.047" y1="103.92" x2="935.047" y2="403.698" gradientUnits="userSpaceOnUse">
<stop stop-color="#F7DD43"/>
<stop offset="1" stop-color="#F7DD43" stop-opacity="0"/>
</linearGradient>
<linearGradient id="paint80_linear_175_198" x1="935.047" y1="103.92" x2="935.047" y2="403.698" gradientUnits="userSpaceOnUse">
<stop stop-color="#F7DD43"/>
<stop offset="1" stop-color="#F7DD43" stop-opacity="0"/>
</linearGradient>
<linearGradient id="paint81_linear_175_198" x1="935.047" y1="103.92" x2="935.047" y2="403.698" gradientUnits="userSpaceOnUse">
<stop stop-color="#F7DD43"/>
<stop offset="1" stop-color="#F7DD43" stop-opacity="0"/>
</linearGradient>
<linearGradient id="paint82_linear_175_198" x1="935.047" y1="103.92" x2="935.047" y2="403.698" gradientUnits="userSpaceOnUse">
<stop stop-color="#F7DD43"/>
<stop offset="1" stop-color="#F7DD43" stop-opacity="0"/>
</linearGradient>
<linearGradient id="paint83_linear_175_198" x1="935.047" y1="103.92" x2="935.047" y2="403.698" gradientUnits="userSpaceOnUse">
<stop stop-color="#F7DD43"/>
<stop offset="1" stop-color="#F7DD43" stop-opacity="0"/>
</linearGradient>
<linearGradient id="paint84_linear_175_198" x1="935.047" y1="103.92" x2="935.047" y2="403.698" gradientUnits="userSpaceOnUse">
<stop stop-color="#F7DD43"/>
<stop offset="1" stop-color="#F7DD43" stop-opacity="0"/>
</linearGradient>
<linearGradient id="paint85_linear_175_198" x1="935.047" y1="103.92" x2="935.047" y2="403.698" gradientUnits="userSpaceOnUse">
<stop stop-color="#F7DD43"/>
<stop offset="1" stop-color="#F7DD43" stop-opacity="0"/>
</linearGradient>
<linearGradient id="paint86_linear_175_198" x1="935.047" y1="103.92" x2="935.047" y2="403.698" gradientUnits="userSpaceOnUse">
<stop stop-color="#F7DD43"/>
<stop offset="1" stop-color="#F7DD43" stop-opacity="0"/>
</linearGradient>
<linearGradient id="paint87_linear_175_198" x1="935.047" y1="103.92" x2="935.047" y2="403.698" gradientUnits="userSpaceOnUse">
<stop stop-color="#F7DD43"/>
<stop offset="1" stop-color="#F7DD43" stop-opacity="0"/>
</linearGradient>
<linearGradient id="paint88_linear_175_198" x1="935.047" y1="103.92" x2="935.047" y2="403.698" gradientUnits="userSpaceOnUse">
<stop stop-color="#F7DD43"/>
<stop offset="1" stop-color="#F7DD43" stop-opacity="0"/>
</linearGradient>
<linearGradient id="paint89_linear_175_198" x1="935.047" y1="103.92" x2="935.047" y2="403.698" gradientUnits="userSpaceOnUse">
<stop stop-color="#F7DD43"/>
<stop offset="1" stop-color="#F7DD43" stop-opacity="0"/>
</linearGradient>
<linearGradient id="paint90_linear_175_198" x1="935.047" y1="103.92" x2="935.047" y2="403.698" gradientUnits="userSpaceOnUse">
<stop stop-color="#F7DD43"/>
<stop offset="1" stop-color="#F7DD43" stop-opacity="0"/>
</linearGradient>
<linearGradient id="paint91_linear_175_198" x1="935.047" y1="103.92" x2="935.047" y2="403.698" gradientUnits="userSpaceOnUse">
<stop stop-color="#F7DD43"/>
<stop offset="1" stop-color="#F7DD43" stop-opacity="0"/>
</linearGradient>
<linearGradient id="paint92_linear_175_198" x1="935.047" y1="103.92" x2="935.047" y2="403.698" gradientUnits="userSpaceOnUse">
<stop stop-color="#F7DD43"/>
<stop offset="1" stop-color="#F7DD43" stop-opacity="0"/>
</linearGradient>
<linearGradient id="paint93_linear_175_198" x1="935.047" y1="103.92" x2="935.047" y2="403.698" gradientUnits="userSpaceOnUse">
<stop stop-color="#F7DD43"/>
<stop offset="1" stop-color="#F7DD43" stop-opacity="0"/>
</linearGradient>
</defs>
</svg>
