<svg width="1024" height="753" viewBox="0 0 1024 753" fill="none" xmlns="http://www.w3.org/2000/svg">
<g opacity="0.2" filter="url(#filter0_f_175_1868)">
<ellipse cx="497" cy="85.0182" rx="655" ry="401.018" fill="#35875D"/>
</g>
<path d="M28.6187 355.419C30.0794 355.419 31.1852 356.141 31.9361 357.586C32.7006 359.015 33.0829 361.094 33.0829 363.825C33.0829 366.555 32.7006 368.642 31.9361 370.087C31.1852 371.532 30.0794 372.254 28.6187 372.254C27.1716 372.254 26.0658 371.532 25.3013 370.087C24.5368 368.642 24.1545 366.555 24.1545 363.825C24.1545 361.11 24.5368 359.03 25.3013 357.586C26.0658 356.141 27.1716 355.419 28.6187 355.419ZM25.6084 363.825C25.6084 365.761 25.7586 367.277 26.059 368.373L30.605 357.824C30.1272 357.078 29.4651 356.705 28.6187 356.705C27.6767 356.705 26.9395 357.292 26.4071 358.467C25.8747 359.626 25.6084 361.412 25.6084 363.825ZM28.6187 370.944C29.5743 370.944 30.3183 370.365 30.8508 369.206C31.3832 368.031 31.6494 366.237 31.6494 363.825C31.6494 361.777 31.4788 360.189 31.1375 359.062L26.5914 369.706C27.0829 370.531 27.7586 370.944 28.6187 370.944Z" fill="url(#paint0_linear_175_1868)" fill-opacity="0.6"/>
<path d="M29.8474 397.967H32.8576V399.229H25.0555V397.967H28.5368V384.585L25.2194 386.894L24.646 385.823L28.7416 382.87H29.8474V397.967Z" fill="url(#paint1_linear_175_1868)" fill-opacity="0.6"/>
<path d="M28.6187 409.845C30.0794 409.845 31.1852 410.568 31.9361 412.012C32.7006 413.441 33.0829 415.52 33.0829 418.251C33.0829 420.981 32.7006 423.069 31.9361 424.513C31.1852 425.958 30.0794 426.68 28.6187 426.68C27.1716 426.68 26.0658 425.958 25.3013 424.513C24.5368 423.069 24.1545 420.981 24.1545 418.251C24.1545 415.536 24.5368 413.457 25.3013 412.012C26.0658 410.568 27.1716 409.845 28.6187 409.845ZM25.6084 418.251C25.6084 420.188 25.7586 421.704 26.059 422.799L30.605 412.25C30.1272 411.504 29.4651 411.131 28.6187 411.131C27.6767 411.131 26.9395 411.719 26.4071 412.893C25.8747 414.052 25.6084 415.838 25.6084 418.251ZM28.6187 425.371C29.5743 425.371 30.3183 424.791 30.8508 423.632C31.3832 422.458 31.6494 420.664 31.6494 418.251C31.6494 416.203 31.4788 414.616 31.1375 413.489L26.5914 424.132C27.0829 424.958 27.7586 425.371 28.6187 425.371Z" fill="url(#paint2_linear_175_1868)" fill-opacity="0.6"/>
<path d="M29.8474 452.393H32.8576V453.655H25.0555V452.393H28.5368V439.011L25.2194 441.321L24.646 440.249L28.7416 437.297H29.8474V452.393Z" fill="url(#paint3_linear_175_1868)" fill-opacity="0.6"/>
<path d="M29.8474 479.606H32.8576V480.868H25.0555V479.606H28.5368V466.224L25.2194 468.534L24.646 467.462L28.7416 464.51H29.8474V479.606Z" fill="url(#paint4_linear_175_1868)" fill-opacity="0.6"/>
<path d="M28.6187 491.485C30.0794 491.485 31.1852 492.207 31.9361 493.652C32.7006 495.08 33.0829 497.16 33.0829 499.89C33.0829 502.621 32.7006 504.708 31.9361 506.153C31.1852 507.597 30.0794 508.32 28.6187 508.32C27.1716 508.32 26.0658 507.597 25.3013 506.153C24.5368 504.708 24.1545 502.621 24.1545 499.89C24.1545 497.176 24.5368 495.096 25.3013 493.652C26.0658 492.207 27.1716 491.485 28.6187 491.485ZM25.6084 499.89C25.6084 501.827 25.7586 503.343 26.059 504.438L30.605 493.89C30.1272 493.144 29.4651 492.771 28.6187 492.771C27.6767 492.771 26.9395 493.358 26.4071 494.533C25.8747 495.692 25.6084 497.477 25.6084 499.89ZM28.6187 507.01C29.5743 507.01 30.3183 506.431 30.8508 505.272C31.3832 504.097 31.6494 502.303 31.6494 499.89C31.6494 497.843 31.4788 496.255 31.1375 495.128L26.5914 505.772C27.0829 506.597 27.7586 507.01 28.6187 507.01Z" fill="url(#paint5_linear_175_1868)" fill-opacity="0.6"/>
<path d="M29.8474 534.033H32.8576V535.295H25.0555V534.033H28.5368V520.651L25.2194 522.96L24.646 521.889L28.7416 518.936H29.8474V534.033Z" fill="url(#paint6_linear_175_1868)" fill-opacity="0.6"/>
<path d="M28.6187 545.911C30.0794 545.911 31.1852 546.634 31.9361 548.078C32.7006 549.507 33.0829 551.586 33.0829 554.317C33.0829 557.047 32.7006 559.135 31.9361 560.579C31.1852 562.024 30.0794 562.746 28.6187 562.746C27.1716 562.746 26.0658 562.024 25.3013 560.579C24.5368 559.135 24.1545 557.047 24.1545 554.317C24.1545 551.602 24.5368 549.523 25.3013 548.078C26.0658 546.634 27.1716 545.911 28.6187 545.911ZM25.6084 554.317C25.6084 556.253 25.7586 557.769 26.059 558.865L30.605 548.316C30.1272 547.57 29.4651 547.197 28.6187 547.197C27.6767 547.197 26.9395 547.784 26.4071 548.959C25.8747 550.118 25.6084 551.904 25.6084 554.317ZM28.6187 561.436C29.5743 561.436 30.3183 560.857 30.8508 559.698C31.3832 558.523 31.6494 556.73 31.6494 554.317C31.6494 552.269 31.4788 550.681 31.1375 549.554L26.5914 560.198C27.0829 561.024 27.7586 561.436 28.6187 561.436Z" fill="url(#paint7_linear_175_1868)" fill-opacity="0.6"/>
<path d="M28.6187 573.124C30.0794 573.124 31.1852 573.847 31.9361 575.291C32.7006 576.72 33.0829 578.799 33.0829 581.53C33.0829 584.26 32.7006 586.348 31.9361 587.792C31.1852 589.237 30.0794 589.959 28.6187 589.959C27.1716 589.959 26.0658 589.237 25.3013 587.792C24.5368 586.348 24.1545 584.26 24.1545 581.53C24.1545 578.815 24.5368 576.736 25.3013 575.291C26.0658 573.847 27.1716 573.124 28.6187 573.124ZM25.6084 581.53C25.6084 583.467 25.7586 584.983 26.059 586.078L30.605 575.529C30.1272 574.783 29.4651 574.41 28.6187 574.41C27.6767 574.41 26.9395 574.998 26.4071 576.172C25.8747 577.331 25.6084 579.117 25.6084 581.53ZM28.6187 588.65C29.5743 588.65 30.3183 588.07 30.8508 586.911C31.3832 585.737 31.6494 583.943 31.6494 581.53C31.6494 579.482 31.4788 577.895 31.1375 576.768L26.5914 587.411C27.0829 588.237 27.7586 588.65 28.6187 588.65Z" fill="url(#paint8_linear_175_1868)" fill-opacity="0.6"/>
<path d="M29.8474 615.672H32.8576V616.934H25.0555V615.672H28.5368V602.29L25.2194 604.6L24.646 603.528L28.7416 600.576H29.8474V615.672Z" fill="url(#paint9_linear_175_1868)" fill-opacity="0.6"/>
<path d="M28.6187 627.551C30.0794 627.551 31.1852 628.273 31.9361 629.718C32.7006 631.146 33.0829 633.226 33.0829 635.956C33.0829 638.687 32.7006 640.774 31.9361 642.219C31.1852 643.663 30.0794 644.385 28.6187 644.385C27.1716 644.385 26.0658 643.663 25.3013 642.219C24.5368 640.774 24.1545 638.687 24.1545 635.956C24.1545 633.242 24.5368 631.162 25.3013 629.718C26.0658 628.273 27.1716 627.551 28.6187 627.551ZM25.6084 635.956C25.6084 637.893 25.7586 639.409 26.059 640.504L30.605 629.956C30.1272 629.21 29.4651 628.837 28.6187 628.837C27.6767 628.837 26.9395 629.424 26.4071 630.599C25.8747 631.757 25.6084 633.543 25.6084 635.956ZM28.6187 643.076C29.5743 643.076 30.3183 642.496 30.8508 641.338C31.3832 640.163 31.6494 638.369 31.6494 635.956C31.6494 633.908 31.4788 632.321 31.1375 631.194L26.5914 641.838C27.0829 642.663 27.7586 643.076 28.6187 643.076Z" fill="url(#paint10_linear_175_1868)" fill-opacity="0.6"/>
<path d="M29.8474 670.098H32.8576V671.36H25.0555V670.098H28.5368V656.716L25.2194 659.026L24.646 657.955L28.7416 655.002H29.8474V670.098Z" fill="url(#paint11_linear_175_1868)" fill-opacity="0.6"/>
<path d="M29.8474 697.312H32.8576V698.574H25.0555V697.312H28.5368V683.93L25.2194 686.239L24.646 685.168L28.7416 682.215H29.8474V697.312Z" fill="url(#paint12_linear_175_1868)" fill-opacity="0.6"/>
<path d="M66.6489 409.845C68.1097 409.845 69.2155 410.568 69.9663 412.012C70.7308 413.441 71.1131 415.52 71.1131 418.251C71.1131 420.981 70.7308 423.069 69.9663 424.513C69.2155 425.958 68.1097 426.68 66.6489 426.68C65.2018 426.68 64.096 425.958 63.3315 424.513C62.567 423.069 62.1848 420.981 62.1848 418.251C62.1848 415.536 62.567 413.457 63.3315 412.012C64.096 410.568 65.2018 409.845 66.6489 409.845ZM63.6387 418.251C63.6387 420.188 63.7889 421.704 64.0892 422.799L68.6353 412.25C68.1575 411.504 67.4953 411.131 66.6489 411.131C65.707 411.131 64.9697 411.719 64.4373 412.893C63.9049 414.052 63.6387 415.838 63.6387 418.251ZM66.6489 425.371C67.6046 425.371 68.3486 424.791 68.881 423.632C69.4134 422.458 69.6796 420.664 69.6796 418.251C69.6796 416.203 69.509 414.616 69.1677 413.489L64.6216 424.132C65.1131 424.958 65.7889 425.371 66.6489 425.371Z" fill="url(#paint13_linear_175_1868)" fill-opacity="0.6"/>
<path d="M67.8776 452.393H70.8878V453.655H63.0858V452.393H66.567V439.011L63.2496 441.321L62.6762 440.249L66.7718 437.297H67.8776V452.393Z" fill="url(#paint14_linear_175_1868)" fill-opacity="0.6"/>
<path d="M66.6489 464.272C68.1097 464.272 69.2155 464.994 69.9663 466.439C70.7308 467.867 71.1131 469.947 71.1131 472.677C71.1131 475.408 70.7308 477.495 69.9663 478.94C69.2155 480.384 68.1097 481.106 66.6489 481.106C65.2018 481.106 64.096 480.384 63.3315 478.94C62.567 477.495 62.1848 475.408 62.1848 472.677C62.1848 469.963 62.567 467.883 63.3315 466.439C64.096 464.994 65.2018 464.272 66.6489 464.272ZM63.6387 472.677C63.6387 474.614 63.7889 476.13 64.0892 477.225L68.6353 466.677C68.1575 465.931 67.4953 465.558 66.6489 465.558C65.707 465.558 64.9697 466.145 64.4373 467.32C63.9049 468.478 63.6387 470.264 63.6387 472.677ZM66.6489 479.797C67.6046 479.797 68.3486 479.217 68.881 478.059C69.4134 476.884 69.6796 475.09 69.6796 472.677C69.6796 470.629 69.509 469.042 69.1677 467.915L64.6216 478.559C65.1131 479.384 65.7889 479.797 66.6489 479.797Z" fill="url(#paint15_linear_175_1868)" fill-opacity="0.6"/>
<path d="M66.6489 491.485C68.1097 491.485 69.2155 492.207 69.9663 493.652C70.7308 495.08 71.1131 497.16 71.1131 499.89C71.1131 502.621 70.7308 504.708 69.9663 506.153C69.2155 507.597 68.1097 508.32 66.6489 508.32C65.2018 508.32 64.096 507.597 63.3315 506.153C62.567 504.708 62.1848 502.621 62.1848 499.89C62.1848 497.176 62.567 495.096 63.3315 493.652C64.096 492.207 65.2018 491.485 66.6489 491.485ZM63.6387 499.89C63.6387 501.827 63.7889 503.343 64.0892 504.438L68.6353 493.89C68.1575 493.144 67.4953 492.771 66.6489 492.771C65.707 492.771 64.9697 493.358 64.4373 494.533C63.9049 495.692 63.6387 497.477 63.6387 499.89ZM66.6489 507.01C67.6046 507.01 68.3486 506.431 68.881 505.272C69.4134 504.097 69.6796 502.303 69.6796 499.89C69.6796 497.843 69.509 496.255 69.1677 495.128L64.6216 505.772C65.1131 506.597 65.7889 507.01 66.6489 507.01Z" fill="url(#paint16_linear_175_1868)" fill-opacity="0.6"/>
<path d="M67.8776 534.033H70.8878V535.295H63.0858V534.033H66.567V520.651L63.2496 522.96L62.6762 521.889L66.7718 518.936H67.8776V534.033Z" fill="url(#paint17_linear_175_1868)" fill-opacity="0.6"/>
<path d="M66.6489 545.911C68.1097 545.911 69.2155 546.634 69.9663 548.078C70.7308 549.507 71.1131 551.586 71.1131 554.317C71.1131 557.047 70.7308 559.135 69.9663 560.579C69.2155 562.024 68.1097 562.746 66.6489 562.746C65.2018 562.746 64.096 562.024 63.3315 560.579C62.567 559.135 62.1848 557.047 62.1848 554.317C62.1848 551.602 62.567 549.523 63.3315 548.078C64.096 546.634 65.2018 545.911 66.6489 545.911ZM63.6387 554.317C63.6387 556.253 63.7889 557.769 64.0892 558.865L68.6353 548.316C68.1575 547.57 67.4953 547.197 66.6489 547.197C65.707 547.197 64.9697 547.784 64.4373 548.959C63.9049 550.118 63.6387 551.904 63.6387 554.317ZM66.6489 561.436C67.6046 561.436 68.3486 560.857 68.881 559.698C69.4134 558.523 69.6796 556.73 69.6796 554.317C69.6796 552.269 69.509 550.681 69.1677 549.554L64.6216 560.198C65.1131 561.024 65.7889 561.436 66.6489 561.436Z" fill="url(#paint18_linear_175_1868)" fill-opacity="0.6"/>
<path d="M67.8776 588.459H70.8878V589.721H63.0858V588.459H66.567V575.077L63.2496 577.387L62.6762 576.315L66.7718 573.362H67.8776V588.459Z" fill="url(#paint19_linear_175_1868)" fill-opacity="0.6"/>
<path d="M66.6489 600.338C68.1097 600.338 69.2155 601.06 69.9663 602.504C70.7308 603.933 71.1131 606.013 71.1131 608.743C71.1131 611.473 70.7308 613.561 69.9663 615.005C69.2155 616.45 68.1097 617.172 66.6489 617.172C65.2018 617.172 64.096 616.45 63.3315 615.005C62.567 613.561 62.1848 611.473 62.1848 608.743C62.1848 606.028 62.567 603.949 63.3315 602.504C64.096 601.06 65.2018 600.338 66.6489 600.338ZM63.6387 608.743C63.6387 610.68 63.7889 612.196 64.0892 613.291L68.6353 602.743C68.1575 601.996 67.4953 601.623 66.6489 601.623C65.707 601.623 64.9697 602.211 64.4373 603.385C63.9049 604.544 63.6387 606.33 63.6387 608.743ZM66.6489 615.863C67.6046 615.863 68.3486 615.283 68.881 614.124C69.4134 612.95 69.6796 611.156 69.6796 608.743C69.6796 606.695 69.509 605.108 69.1677 603.981L64.6216 614.624C65.1131 615.45 65.7889 615.863 66.6489 615.863Z" fill="url(#paint20_linear_175_1868)" fill-opacity="0.6"/>
<path d="M66.6489 627.551C68.1097 627.551 69.2155 628.273 69.9663 629.718C70.7308 631.146 71.1131 633.226 71.1131 635.956C71.1131 638.687 70.7308 640.774 69.9663 642.219C69.2155 643.663 68.1097 644.385 66.6489 644.385C65.2018 644.385 64.096 643.663 63.3315 642.219C62.567 640.774 62.1848 638.687 62.1848 635.956C62.1848 633.242 62.567 631.162 63.3315 629.718C64.096 628.273 65.2018 627.551 66.6489 627.551ZM63.6387 635.956C63.6387 637.893 63.7889 639.409 64.0892 640.504L68.6353 629.956C68.1575 629.21 67.4953 628.837 66.6489 628.837C65.707 628.837 64.9697 629.424 64.4373 630.599C63.9049 631.757 63.6387 633.543 63.6387 635.956ZM66.6489 643.076C67.6046 643.076 68.3486 642.496 68.881 641.338C69.4134 640.163 69.6796 638.369 69.6796 635.956C69.6796 633.908 69.509 632.321 69.1677 631.194L64.6216 641.838C65.1131 642.663 65.7889 643.076 66.6489 643.076Z" fill="url(#paint21_linear_175_1868)" fill-opacity="0.6"/>
<path d="M67.8776 670.098H70.8878V671.36H63.0858V670.098H66.567V656.716L63.2496 659.026L62.6762 657.955L66.7718 655.002H67.8776V670.098Z" fill="url(#paint22_linear_175_1868)" fill-opacity="0.6"/>
<path d="M66.6489 681.977C68.1097 681.977 69.2155 682.699 69.9663 684.144C70.7308 685.573 71.1131 687.652 71.1131 690.382C71.1131 693.113 70.7308 695.2 69.9663 696.645C69.2155 698.089 68.1097 698.812 66.6489 698.812C65.2018 698.812 64.096 698.089 63.3315 696.645C62.567 695.2 62.1848 693.113 62.1848 690.382C62.1848 687.668 62.567 685.588 63.3315 684.144C64.096 682.699 65.2018 681.977 66.6489 681.977ZM63.6387 690.382C63.6387 692.319 63.7889 693.835 64.0892 694.931L68.6353 684.382C68.1575 683.636 67.4953 683.263 66.6489 683.263C65.707 683.263 64.9697 683.85 64.4373 685.025C63.9049 686.184 63.6387 687.97 63.6387 690.382ZM66.6489 697.502C67.6046 697.502 68.3486 696.923 68.881 695.764C69.4134 694.589 69.6796 692.795 69.6796 690.382C69.6796 688.335 69.509 686.747 69.1677 685.62L64.6216 696.264C65.1131 697.089 65.7889 697.502 66.6489 697.502Z" fill="url(#paint23_linear_175_1868)" fill-opacity="0.6"/>
<path d="M67.8776 724.525H70.8878V725.787H63.0858V724.525H66.567V711.143L63.2496 713.452L62.6762 712.381L66.7718 709.428H67.8776V724.525Z" fill="url(#paint24_linear_175_1868)" fill-opacity="0.6"/>
<path d="M67.8776 751.738H70.8878V753H63.0858V751.738H66.567V738.356L63.2496 740.666L62.6762 739.594L66.7718 736.641H67.8776V751.738Z" fill="url(#paint25_linear_175_1868)" fill-opacity="0.6"/>
<path d="M9.60357 437.059C11.0643 437.059 12.1701 437.781 12.921 439.225C13.6855 440.654 14.0677 442.734 14.0677 445.464C14.0677 448.194 13.6855 450.282 12.921 451.726C12.1701 453.171 11.0643 453.893 9.60357 453.893C8.15647 453.893 7.05067 453.171 6.28616 451.726C5.52166 450.282 5.1394 448.194 5.1394 445.464C5.1394 442.75 5.52166 440.67 6.28616 439.225C7.05067 437.781 8.15647 437.059 9.60357 437.059ZM6.59333 445.464C6.59333 447.401 6.7435 448.917 7.04384 450.012L11.5899 439.464C11.1121 438.717 10.45 438.344 9.60357 438.344C8.66159 438.344 7.92439 438.932 7.39196 440.106C6.85954 441.265 6.59333 443.051 6.59333 445.464ZM9.60357 452.584C10.5592 452.584 11.3032 452.004 11.8357 450.845C12.3681 449.671 12.6343 447.877 12.6343 445.464C12.6343 443.416 12.4636 441.829 12.1223 440.702L7.57627 451.345C8.06773 452.171 8.7435 452.584 9.60357 452.584Z" fill="url(#paint26_linear_175_1868)" fill-opacity="0.6"/>
<path d="M9.60357 464.272C11.0643 464.272 12.1701 464.994 12.921 466.439C13.6855 467.867 14.0677 469.947 14.0677 472.677C14.0677 475.408 13.6855 477.495 12.921 478.94C12.1701 480.384 11.0643 481.106 9.60357 481.106C8.15647 481.106 7.05067 480.384 6.28616 478.94C5.52166 477.495 5.1394 475.408 5.1394 472.677C5.1394 469.963 5.52166 467.883 6.28616 466.439C7.05067 464.994 8.15647 464.272 9.60357 464.272ZM6.59333 472.677C6.59333 474.614 6.7435 476.13 7.04384 477.225L11.5899 466.677C11.1121 465.931 10.45 465.558 9.60357 465.558C8.66159 465.558 7.92439 466.145 7.39196 467.32C6.85954 468.478 6.59333 470.264 6.59333 472.677ZM9.60357 479.797C10.5592 479.797 11.3032 479.217 11.8357 478.059C12.3681 476.884 12.6343 475.09 12.6343 472.677C12.6343 470.629 12.4636 469.042 12.1223 467.915L7.57627 478.559C8.06773 479.384 8.7435 479.797 9.60357 479.797Z" fill="url(#paint27_linear_175_1868)" fill-opacity="0.6"/>
<path d="M10.8322 506.82H13.8425V508.082H6.04043V506.82H9.52166V493.437L6.20425 495.747L5.63087 494.676L9.72644 491.723H10.8322V506.82Z" fill="url(#paint28_linear_175_1868)" fill-opacity="0.6"/>
<path d="M9.60357 518.698C11.0643 518.698 12.1701 519.42 12.921 520.865C13.6855 522.294 14.0677 524.373 14.0677 527.104C14.0677 529.834 13.6855 531.921 12.921 533.366C12.1701 534.811 11.0643 535.533 9.60357 535.533C8.15647 535.533 7.05067 534.811 6.28616 533.366C5.52166 531.921 5.1394 529.834 5.1394 527.104C5.1394 524.389 5.52166 522.309 6.28616 520.865C7.05067 519.42 8.15647 518.698 9.60357 518.698ZM6.59333 527.104C6.59333 529.04 6.7435 530.556 7.04384 531.652L11.5899 521.103C11.1121 520.357 10.45 519.984 9.60357 519.984C8.66159 519.984 7.92439 520.571 7.39196 521.746C6.85954 522.905 6.59333 524.691 6.59333 527.104ZM9.60357 534.223C10.5592 534.223 11.3032 533.644 11.8357 532.485C12.3681 531.31 12.6343 529.516 12.6343 527.104C12.6343 525.056 12.4636 523.468 12.1223 522.341L7.57627 532.985C8.06773 533.81 8.7435 534.223 9.60357 534.223Z" fill="url(#paint29_linear_175_1868)" fill-opacity="0.6"/>
<path d="M10.8322 561.246H13.8425V562.508H6.04043V561.246H9.52166V547.864L6.20425 550.173L5.63087 549.102L9.72644 546.149H10.8322V561.246Z" fill="url(#paint30_linear_175_1868)" fill-opacity="0.6"/>
<path d="M10.8322 588.459H13.8425V589.721H6.04043V588.459H9.52166V575.077L6.20425 577.387L5.63087 576.315L9.72644 573.362H10.8322V588.459Z" fill="url(#paint31_linear_175_1868)" fill-opacity="0.6"/>
<path d="M48.8625 397.967H51.8727V399.229H44.0707V397.967H47.5519V384.585L44.2345 386.894L43.6611 385.823L47.7567 382.87H48.8625V397.967Z" fill="url(#paint32_linear_175_1868)" fill-opacity="0.6"/>
<path d="M47.6338 409.845C49.0946 409.845 50.2004 410.568 50.9512 412.012C51.7157 413.441 52.098 415.52 52.098 418.251C52.098 420.981 51.7157 423.069 50.9512 424.513C50.2004 425.958 49.0946 426.68 47.6338 426.68C46.1867 426.68 45.0809 425.958 44.3164 424.513C43.5519 423.069 43.1696 420.981 43.1696 418.251C43.1696 415.536 43.5519 413.457 44.3164 412.012C45.0809 410.568 46.1867 409.845 47.6338 409.845ZM44.6236 418.251C44.6236 420.188 44.7737 421.704 45.0741 422.799L49.6202 412.25C49.1423 411.504 48.4802 411.131 47.6338 411.131C46.6918 411.131 45.9546 411.719 45.4222 412.893C44.8898 414.052 44.6236 415.838 44.6236 418.251ZM47.6338 425.371C48.5894 425.371 49.3335 424.791 49.8659 423.632C50.3983 422.458 50.6645 420.664 50.6645 418.251C50.6645 416.203 50.4939 414.616 50.1526 413.489L45.6065 424.132C46.098 424.958 46.7737 425.371 47.6338 425.371Z" fill="url(#paint33_linear_175_1868)" fill-opacity="0.6"/>
<path d="M48.8625 452.393H51.8727V453.655H44.0707V452.393H47.5519V439.011L44.2345 441.321L43.6611 440.249L47.7567 437.297H48.8625V452.393Z" fill="url(#paint34_linear_175_1868)" fill-opacity="0.6"/>
<path d="M48.8625 479.606H51.8727V480.868H44.0707V479.606H47.5519V466.224L44.2345 468.534L43.6611 467.462L47.7567 464.51H48.8625V479.606Z" fill="url(#paint35_linear_175_1868)" fill-opacity="0.6"/>
<path d="M47.6338 491.485C49.0946 491.485 50.2004 492.207 50.9512 493.652C51.7157 495.08 52.098 497.16 52.098 499.89C52.098 502.621 51.7157 504.708 50.9512 506.153C50.2004 507.597 49.0946 508.32 47.6338 508.32C46.1867 508.32 45.0809 507.597 44.3164 506.153C43.5519 504.708 43.1696 502.621 43.1696 499.89C43.1696 497.176 43.5519 495.096 44.3164 493.652C45.0809 492.207 46.1867 491.485 47.6338 491.485ZM44.6236 499.89C44.6236 501.827 44.7737 503.343 45.0741 504.438L49.6202 493.89C49.1423 493.144 48.4802 492.771 47.6338 492.771C46.6918 492.771 45.9546 493.358 45.4222 494.533C44.8898 495.692 44.6236 497.477 44.6236 499.89ZM47.6338 507.01C48.5894 507.01 49.3335 506.431 49.8659 505.272C50.3983 504.097 50.6645 502.303 50.6645 499.89C50.6645 497.843 50.4939 496.255 50.1526 495.128L45.6065 505.772C46.098 506.597 46.7737 507.01 47.6338 507.01Z" fill="url(#paint36_linear_175_1868)" fill-opacity="0.6"/>
<path d="M48.8625 534.033H51.8727V535.295H44.0707V534.033H47.5519V520.651L44.2345 522.96L43.6611 521.889L47.7567 518.936H48.8625V534.033Z" fill="url(#paint37_linear_175_1868)" fill-opacity="0.6"/>
<path d="M48.8625 561.246H51.8727V562.508H44.0707V561.246H47.5519V547.864L44.2345 550.173L43.6611 549.102L47.7567 546.149H48.8625V561.246Z" fill="url(#paint38_linear_175_1868)" fill-opacity="0.6"/>
<path d="M47.6338 573.124C49.0946 573.124 50.2004 573.847 50.9512 575.291C51.7157 576.72 52.098 578.799 52.098 581.53C52.098 584.26 51.7157 586.348 50.9512 587.792C50.2004 589.237 49.0946 589.959 47.6338 589.959C46.1867 589.959 45.0809 589.237 44.3164 587.792C43.5519 586.348 43.1696 584.26 43.1696 581.53C43.1696 578.815 43.5519 576.736 44.3164 575.291C45.0809 573.847 46.1867 573.124 47.6338 573.124ZM44.6236 581.53C44.6236 583.467 44.7737 584.983 45.0741 586.078L49.6202 575.529C49.1423 574.783 48.4802 574.41 47.6338 574.41C46.6918 574.41 45.9546 574.998 45.4222 576.172C44.8898 577.331 44.6236 579.117 44.6236 581.53ZM47.6338 588.65C48.5894 588.65 49.3335 588.07 49.8659 586.911C50.3983 585.737 50.6645 583.943 50.6645 581.53C50.6645 579.482 50.4939 577.895 50.1526 576.768L45.6065 587.411C46.098 588.237 46.7737 588.65 47.6338 588.65Z" fill="url(#paint39_linear_175_1868)" fill-opacity="0.6"/>
<path d="M48.8625 615.672H51.8727V616.934H44.0707V615.672H47.5519V602.29L44.2345 604.6L43.6611 603.528L47.7567 600.576H48.8625V615.672Z" fill="url(#paint40_linear_175_1868)" fill-opacity="0.6"/>
<path d="M47.6338 627.551C49.0946 627.551 50.2004 628.273 50.9512 629.718C51.7157 631.146 52.098 633.226 52.098 635.956C52.098 638.687 51.7157 640.774 50.9512 642.219C50.2004 643.663 49.0946 644.385 47.6338 644.385C46.1867 644.385 45.0809 643.663 44.3164 642.219C43.5519 640.774 43.1696 638.687 43.1696 635.956C43.1696 633.242 43.5519 631.162 44.3164 629.718C45.0809 628.273 46.1867 627.551 47.6338 627.551ZM44.6236 635.956C44.6236 637.893 44.7737 639.409 45.0741 640.504L49.6202 629.956C49.1423 629.21 48.4802 628.837 47.6338 628.837C46.6918 628.837 45.9546 629.424 45.4222 630.599C44.8898 631.757 44.6236 633.543 44.6236 635.956ZM47.6338 643.076C48.5894 643.076 49.3335 642.496 49.8659 641.338C50.3983 640.163 50.6645 638.369 50.6645 635.956C50.6645 633.908 50.4939 632.321 50.1526 631.194L45.6065 641.838C46.098 642.663 46.7737 643.076 47.6338 643.076Z" fill="url(#paint41_linear_175_1868)" fill-opacity="0.6"/>
<path d="M85.6641 382.632C87.1248 382.632 88.2306 383.355 88.9815 384.799C89.746 386.228 90.1282 388.307 90.1282 391.038C90.1282 393.768 89.746 395.856 88.9815 397.3C88.2306 398.745 87.1248 399.467 85.6641 399.467C84.217 399.467 83.1111 398.745 82.3466 397.3C81.5821 395.856 81.1999 393.768 81.1999 391.038C81.1999 388.323 81.5821 386.244 82.3466 384.799C83.1111 383.355 84.217 382.632 85.6641 382.632ZM82.6538 391.038C82.6538 392.974 82.804 394.49 83.1043 395.586L87.6504 385.037C87.1726 384.291 86.5105 383.918 85.6641 383.918C84.7221 383.918 83.9849 384.505 83.4524 385.68C82.92 386.839 82.6538 388.625 82.6538 391.038ZM85.6641 398.157C86.6197 398.157 87.3637 397.578 87.8961 396.419C88.4286 395.244 88.6948 393.451 88.6948 391.038C88.6948 388.99 88.5241 387.402 88.1828 386.275L83.6367 396.919C84.1282 397.745 84.804 398.157 85.6641 398.157Z" fill="url(#paint42_linear_175_1868)" fill-opacity="0.6"/>
<path d="M86.8927 425.18H89.903V426.442H82.1009V425.18H85.5821V411.798L82.2647 414.108L81.6914 413.036L85.7869 410.084H86.8927V425.18Z" fill="url(#paint43_linear_175_1868)" fill-opacity="0.6"/>
<path d="M86.8927 452.393H89.903V453.655H82.1009V452.393H85.5821V439.011L82.2647 441.321L81.6914 440.249L85.7869 437.297H86.8927V452.393Z" fill="url(#paint44_linear_175_1868)" fill-opacity="0.6"/>
<path d="M85.6641 464.272C87.1248 464.272 88.2306 464.994 88.9815 466.439C89.746 467.867 90.1282 469.947 90.1282 472.677C90.1282 475.408 89.746 477.495 88.9815 478.94C88.2306 480.384 87.1248 481.106 85.6641 481.106C84.217 481.106 83.1111 480.384 82.3466 478.94C81.5821 477.495 81.1999 475.408 81.1999 472.677C81.1999 469.963 81.5821 467.883 82.3466 466.439C83.1111 464.994 84.217 464.272 85.6641 464.272ZM82.6538 472.677C82.6538 474.614 82.804 476.13 83.1043 477.225L87.6504 466.677C87.1726 465.931 86.5105 465.558 85.6641 465.558C84.7221 465.558 83.9849 466.145 83.4524 467.32C82.92 468.478 82.6538 470.264 82.6538 472.677ZM85.6641 479.797C86.6197 479.797 87.3637 479.217 87.8961 478.059C88.4286 476.884 88.6948 475.09 88.6948 472.677C88.6948 470.629 88.5241 469.042 88.1828 467.915L83.6367 478.559C84.1282 479.384 84.804 479.797 85.6641 479.797Z" fill="url(#paint45_linear_175_1868)" fill-opacity="0.6"/>
<path d="M85.6641 491.485C87.1248 491.485 88.2306 492.207 88.9815 493.652C89.746 495.08 90.1282 497.16 90.1282 499.89C90.1282 502.621 89.746 504.708 88.9815 506.153C88.2306 507.597 87.1248 508.32 85.6641 508.32C84.217 508.32 83.1111 507.597 82.3466 506.153C81.5821 504.708 81.1999 502.621 81.1999 499.89C81.1999 497.176 81.5821 495.096 82.3466 493.652C83.1111 492.207 84.217 491.485 85.6641 491.485ZM82.6538 499.89C82.6538 501.827 82.804 503.343 83.1043 504.438L87.6504 493.89C87.1726 493.144 86.5105 492.771 85.6641 492.771C84.7221 492.771 83.9849 493.358 83.4524 494.533C82.92 495.692 82.6538 497.477 82.6538 499.89ZM85.6641 507.01C86.6197 507.01 87.3637 506.431 87.8961 505.272C88.4286 504.097 88.6948 502.303 88.6948 499.89C88.6948 497.843 88.5241 496.255 88.1828 495.128L83.6367 505.772C84.1282 506.597 84.804 507.01 85.6641 507.01Z" fill="url(#paint46_linear_175_1868)" fill-opacity="0.6"/>
<g opacity="0.6">
<path d="M895.011 11.6892C896.405 11.6892 897.46 12.3824 898.176 13.7686C898.905 15.1397 899.27 17.1353 899.27 19.7555C899.27 22.3758 898.905 24.379 898.176 25.7653C897.46 27.1516 896.405 27.8447 895.011 27.8447C893.631 27.8447 892.576 27.1516 891.846 25.7653C891.117 24.379 890.752 22.3758 890.752 19.7555C890.752 17.1506 891.117 15.1549 891.846 13.7686C892.576 12.3824 893.631 11.6892 895.011 11.6892ZM892.139 19.7555C892.139 21.6141 892.283 23.0689 892.569 24.1201L896.906 13.9971C896.45 13.2811 895.819 12.9232 895.011 12.9232C894.113 12.9232 893.409 13.4868 892.901 14.6141C892.393 15.7262 892.139 17.44 892.139 19.7555ZM895.011 26.5879C895.923 26.5879 896.633 26.0319 897.141 24.9198C897.649 23.7925 897.903 22.0711 897.903 19.7555C897.903 17.7904 897.74 16.267 897.414 15.1854L893.077 25.3997C893.546 26.1919 894.191 26.5879 895.011 26.5879Z" fill="url(#paint47_linear_175_1868)"/>
<path d="M896.183 52.5204H899.055V53.7315H891.612V52.5204H894.933V39.6782L891.768 41.8947L891.221 40.8664L895.128 38.0329H896.183V52.5204Z" fill="url(#paint48_linear_175_1868)"/>
<path d="M895.011 63.9197C896.405 63.9197 897.46 64.6128 898.176 65.9991C898.905 67.3701 899.27 69.3658 899.27 71.986C899.27 74.6062 898.905 76.6095 898.176 77.9958C897.46 79.382 896.405 80.0752 895.011 80.0752C893.631 80.0752 892.576 79.382 891.846 77.9958C891.117 76.6095 890.752 74.6062 890.752 71.986C890.752 69.381 891.117 67.3854 891.846 65.9991C892.576 64.6128 893.631 63.9197 895.011 63.9197ZM892.139 71.986C892.139 73.8445 892.283 75.2994 892.569 76.3505L896.906 66.2276C896.45 65.5116 895.819 65.1536 895.011 65.1536C894.113 65.1536 893.409 65.7173 892.901 66.8446C892.393 67.9566 892.139 69.6705 892.139 71.986ZM895.011 78.8184C895.923 78.8184 896.633 78.2624 897.141 77.1503C897.649 76.023 897.903 74.3016 897.903 71.986C897.903 70.0208 897.74 68.4974 897.414 67.4158L893.077 77.6302C893.546 78.4223 894.191 78.8184 895.011 78.8184Z" fill="url(#paint49_linear_175_1868)"/>
<path d="M896.183 104.751H899.055V105.962H891.612V104.751H894.933V91.9086L891.768 94.1252L891.221 93.0969L895.128 90.2634H896.183V104.751Z" fill="url(#paint50_linear_175_1868)"/>
<path d="M896.183 130.866H899.055V132.077H891.612V130.866H894.933V118.024L891.768 120.24L891.221 119.212L895.128 116.379H896.183V130.866Z" fill="url(#paint51_linear_175_1868)"/>
<path d="M895.011 142.265C896.405 142.265 897.46 142.958 898.176 144.345C898.905 145.716 899.27 147.711 899.27 150.332C899.27 152.952 898.905 154.955 898.176 156.341C897.46 157.728 896.405 158.421 895.011 158.421C893.631 158.421 892.576 157.728 891.846 156.341C891.117 154.955 890.752 152.952 890.752 150.332C890.752 147.727 891.117 145.731 891.846 144.345C892.576 142.958 893.631 142.265 895.011 142.265ZM892.139 150.332C892.139 152.19 892.283 153.645 892.569 154.696L896.906 144.573C896.45 143.857 895.819 143.499 895.011 143.499C894.113 143.499 893.409 144.063 892.901 145.19C892.393 146.302 892.139 148.016 892.139 150.332ZM895.011 157.164C895.923 157.164 896.633 156.608 897.141 155.496C897.649 154.369 897.903 152.647 897.903 150.332C897.903 148.367 897.74 146.843 897.414 145.762L893.077 155.976C893.546 156.768 894.191 157.164 895.011 157.164Z" fill="url(#paint52_linear_175_1868)"/>
<path d="M896.183 183.096H899.055V184.308H891.612V183.096H894.933V170.254L891.768 172.471L891.221 171.443L895.128 168.609H896.183V183.096Z" fill="url(#paint53_linear_175_1868)"/>
<path d="M895.011 194.496C896.405 194.496 897.46 195.189 898.176 196.575C898.905 197.946 899.27 199.942 899.27 202.562C899.27 205.182 898.905 207.186 898.176 208.572C897.46 209.958 896.405 210.651 895.011 210.651C893.631 210.651 892.576 209.958 891.846 208.572C891.117 207.186 890.752 205.182 890.752 202.562C890.752 199.957 891.117 197.962 891.846 196.575C892.576 195.189 893.631 194.496 895.011 194.496ZM892.139 202.562C892.139 204.421 892.283 205.875 892.569 206.927L896.906 196.804C896.45 196.088 895.819 195.73 895.011 195.73C894.113 195.73 893.409 196.293 892.901 197.421C892.393 198.533 892.139 200.247 892.139 202.562ZM895.011 209.395C895.923 209.395 896.633 208.839 897.141 207.726C897.649 206.599 897.903 204.878 897.903 202.562C897.903 200.597 897.74 199.074 897.414 197.992L893.077 208.206C893.546 208.998 894.191 209.395 895.011 209.395Z" fill="url(#paint54_linear_175_1868)"/>
<path d="M895.011 220.611C896.405 220.611 897.46 221.304 898.176 222.69C898.905 224.061 899.27 226.057 899.27 228.677C899.27 231.298 898.905 233.301 898.176 234.687C897.46 236.073 896.405 236.767 895.011 236.767C893.631 236.767 892.576 236.073 891.846 234.687C891.117 233.301 890.752 231.298 890.752 228.677C890.752 226.072 891.117 224.077 891.846 222.69C892.576 221.304 893.631 220.611 895.011 220.611ZM892.139 228.677C892.139 230.536 892.283 231.991 892.569 233.042L896.906 222.919C896.45 222.203 895.819 221.845 895.011 221.845C894.113 221.845 893.409 222.409 892.901 223.536C892.393 224.648 892.139 226.362 892.139 228.677ZM895.011 235.51C895.923 235.51 896.633 234.954 897.141 233.842C897.649 232.714 897.903 230.993 897.903 228.677C897.903 226.712 897.74 225.189 897.414 224.107L893.077 234.321C893.546 235.114 894.191 235.51 895.011 235.51Z" fill="url(#paint55_linear_175_1868)"/>
<path d="M896.183 261.442H899.055V262.653H891.612V261.442H894.933V248.6L891.768 250.817L891.221 249.788L895.128 246.955H896.183V261.442Z" fill="url(#paint56_linear_175_1868)"/>
<path d="M895.011 272.841C896.405 272.841 897.46 273.535 898.176 274.921C898.905 276.292 899.27 278.288 899.27 280.908C899.27 283.528 898.905 285.531 898.176 286.918C897.46 288.304 896.405 288.997 895.011 288.997C893.631 288.997 892.576 288.304 891.846 286.918C891.117 285.531 890.752 283.528 890.752 280.908C890.752 278.303 891.117 276.307 891.846 274.921C892.576 273.535 893.631 272.841 895.011 272.841ZM892.139 280.908C892.139 282.766 892.283 284.221 892.569 285.272L896.906 275.149C896.45 274.433 895.819 274.075 895.011 274.075C894.113 274.075 893.409 274.639 892.901 275.766C892.393 276.878 892.139 278.592 892.139 280.908ZM895.011 287.74C895.923 287.74 896.633 287.184 897.141 286.072C897.649 284.945 897.903 283.223 897.903 280.908C897.903 278.943 897.74 277.419 897.414 276.338L893.077 286.552C893.546 287.344 894.191 287.74 895.011 287.74Z" fill="url(#paint57_linear_175_1868)"/>
<path d="M896.183 313.673H899.055V314.884H891.612V313.673H894.933V300.83L891.768 303.047L891.221 302.019L895.128 299.185H896.183V313.673Z" fill="url(#paint58_linear_175_1868)"/>
<path d="M896.183 339.788H899.055V340.999H891.612V339.788H894.933V326.946L891.768 329.162L891.221 328.134L895.128 325.3H896.183V339.788Z" fill="url(#paint59_linear_175_1868)"/>
<path d="M931.293 63.9197C932.687 63.9197 933.742 64.6128 934.458 65.9991C935.187 67.3701 935.552 69.3658 935.552 71.986C935.552 74.6062 935.187 76.6095 934.458 77.9958C933.742 79.382 932.687 80.0752 931.293 80.0752C929.912 80.0752 928.857 79.382 928.128 77.9958C927.399 76.6095 927.034 74.6062 927.034 71.986C927.034 69.381 927.399 67.3854 928.128 65.9991C928.857 64.6128 929.912 63.9197 931.293 63.9197ZM928.421 71.986C928.421 73.8445 928.564 75.2994 928.851 76.3505L933.188 66.2276C932.732 65.5116 932.1 65.1536 931.293 65.1536C930.394 65.1536 929.691 65.7173 929.183 66.8446C928.675 67.9566 928.421 69.6705 928.421 71.986ZM931.293 78.8184C932.205 78.8184 932.914 78.2624 933.422 77.1503C933.93 76.023 934.184 74.3016 934.184 71.986C934.184 70.0208 934.022 68.4974 933.696 67.4158L929.359 77.6302C929.828 78.4223 930.472 78.8184 931.293 78.8184Z" fill="url(#paint60_linear_175_1868)"/>
<path d="M932.465 104.751H935.337V105.962H927.894V104.751H931.215V91.9086L928.05 94.1252L927.503 93.0969L931.41 90.2634H932.465V104.751Z" fill="url(#paint61_linear_175_1868)"/>
<path d="M931.293 116.15C932.687 116.15 933.742 116.843 934.458 118.23C935.187 119.601 935.552 121.596 935.552 124.216C935.552 126.837 935.187 128.84 934.458 130.226C933.742 131.613 932.687 132.306 931.293 132.306C929.912 132.306 928.857 131.613 928.128 130.226C927.399 128.84 927.034 126.837 927.034 124.216C927.034 121.611 927.399 119.616 928.128 118.23C928.857 116.843 929.912 116.15 931.293 116.15ZM928.421 124.216C928.421 126.075 928.564 127.53 928.851 128.581L933.188 118.458C932.732 117.742 932.1 117.384 931.293 117.384C930.394 117.384 929.691 117.948 929.183 119.075C928.675 120.187 928.421 121.901 928.421 124.216ZM931.293 131.049C932.205 131.049 932.914 130.493 933.422 129.381C933.93 128.253 934.184 126.532 934.184 124.216C934.184 122.251 934.022 120.728 933.696 119.646L929.359 129.861C929.828 130.653 930.472 131.049 931.293 131.049Z" fill="url(#paint62_linear_175_1868)"/>
<path d="M931.293 142.265C932.687 142.265 933.742 142.958 934.458 144.345C935.187 145.716 935.552 147.711 935.552 150.332C935.552 152.952 935.187 154.955 934.458 156.341C933.742 157.728 932.687 158.421 931.293 158.421C929.912 158.421 928.857 157.728 928.128 156.341C927.399 154.955 927.034 152.952 927.034 150.332C927.034 147.727 927.399 145.731 928.128 144.345C928.857 142.958 929.912 142.265 931.293 142.265ZM928.421 150.332C928.421 152.19 928.564 153.645 928.851 154.696L933.188 144.573C932.732 143.857 932.1 143.499 931.293 143.499C930.394 143.499 929.691 144.063 929.183 145.19C928.675 146.302 928.421 148.016 928.421 150.332ZM931.293 157.164C932.205 157.164 932.914 156.608 933.422 155.496C933.93 154.369 934.184 152.647 934.184 150.332C934.184 148.367 934.022 146.843 933.696 145.762L929.359 155.976C929.828 156.768 930.472 157.164 931.293 157.164Z" fill="url(#paint63_linear_175_1868)"/>
<path d="M932.465 183.096H935.337V184.308H927.894V183.096H931.215V170.254L928.05 172.471L927.503 171.443L931.41 168.609H932.465V183.096Z" fill="url(#paint64_linear_175_1868)"/>
<path d="M931.293 194.496C932.687 194.496 933.742 195.189 934.458 196.575C935.187 197.946 935.552 199.942 935.552 202.562C935.552 205.182 935.187 207.186 934.458 208.572C933.742 209.958 932.687 210.651 931.293 210.651C929.912 210.651 928.857 209.958 928.128 208.572C927.399 207.186 927.034 205.182 927.034 202.562C927.034 199.957 927.399 197.962 928.128 196.575C928.857 195.189 929.912 194.496 931.293 194.496ZM928.421 202.562C928.421 204.421 928.564 205.875 928.851 206.927L933.188 196.804C932.732 196.088 932.1 195.73 931.293 195.73C930.394 195.73 929.691 196.293 929.183 197.421C928.675 198.533 928.421 200.247 928.421 202.562ZM931.293 209.395C932.205 209.395 932.914 208.839 933.422 207.726C933.93 206.599 934.184 204.878 934.184 202.562C934.184 200.597 934.022 199.074 933.696 197.992L929.359 208.206C929.828 208.998 930.472 209.395 931.293 209.395Z" fill="url(#paint65_linear_175_1868)"/>
<path d="M932.465 235.327H935.337V236.538H927.894V235.327H931.215V222.485L928.05 224.701L927.503 223.673L931.41 220.84H932.465V235.327Z" fill="url(#paint66_linear_175_1868)"/>
<path d="M931.293 246.726C932.687 246.726 933.742 247.419 934.458 248.806C935.187 250.177 935.552 252.172 935.552 254.793C935.552 257.413 935.187 259.416 934.458 260.802C933.742 262.189 932.687 262.882 931.293 262.882C929.912 262.882 928.857 262.189 928.128 260.802C927.399 259.416 927.034 257.413 927.034 254.793C927.034 252.188 927.399 250.192 928.128 248.806C928.857 247.419 929.912 246.726 931.293 246.726ZM928.421 254.793C928.421 256.651 928.564 258.106 928.851 259.157L933.188 249.034C932.732 248.318 932.1 247.96 931.293 247.96C930.394 247.96 929.691 248.524 929.183 249.651C928.675 250.763 928.421 252.477 928.421 254.793ZM931.293 261.625C932.205 261.625 932.914 261.069 933.422 259.957C933.93 258.83 934.184 257.108 934.184 254.793C934.184 252.827 934.022 251.304 933.696 250.222L929.359 260.437C929.828 261.229 930.472 261.625 931.293 261.625Z" fill="url(#paint67_linear_175_1868)"/>
<path d="M931.293 272.841C932.687 272.841 933.742 273.535 934.458 274.921C935.187 276.292 935.552 278.288 935.552 280.908C935.552 283.528 935.187 285.531 934.458 286.918C933.742 288.304 932.687 288.997 931.293 288.997C929.912 288.997 928.857 288.304 928.128 286.918C927.399 285.531 927.034 283.528 927.034 280.908C927.034 278.303 927.399 276.307 928.128 274.921C928.857 273.535 929.912 272.841 931.293 272.841ZM928.421 280.908C928.421 282.766 928.564 284.221 928.851 285.272L933.188 275.149C932.732 274.433 932.1 274.075 931.293 274.075C930.394 274.075 929.691 274.639 929.183 275.766C928.675 276.878 928.421 278.592 928.421 280.908ZM931.293 287.74C932.205 287.74 932.914 287.184 933.422 286.072C933.93 284.945 934.184 283.223 934.184 280.908C934.184 278.943 934.022 277.419 933.696 276.338L929.359 286.552C929.828 287.344 930.472 287.74 931.293 287.74Z" fill="url(#paint68_linear_175_1868)"/>
<path d="M932.465 313.673H935.337V314.884H927.894V313.673H931.215V300.83L928.05 303.047L927.503 302.019L931.41 299.185H932.465V313.673Z" fill="url(#paint69_linear_175_1868)"/>
<path d="M931.293 325.072C932.687 325.072 933.742 325.765 934.458 327.151C935.187 328.522 935.552 330.518 935.552 333.138C935.552 335.758 935.187 337.762 934.458 339.148C933.742 340.534 932.687 341.227 931.293 341.227C929.912 341.227 928.857 340.534 928.128 339.148C927.399 337.762 927.034 335.758 927.034 333.138C927.034 330.533 927.399 328.538 928.128 327.151C928.857 325.765 929.912 325.072 931.293 325.072ZM928.421 333.138C928.421 334.997 928.564 336.452 928.851 337.503L933.188 327.38C932.732 326.664 932.1 326.306 931.293 326.306C930.394 326.306 929.691 326.87 929.183 327.997C928.675 329.109 928.421 330.823 928.421 333.138ZM931.293 339.971C932.205 339.971 932.914 339.415 933.422 338.303C933.93 337.175 934.184 335.454 934.184 333.138C934.184 331.173 934.022 329.65 933.696 328.568L929.359 338.782C929.828 339.575 930.472 339.971 931.293 339.971Z" fill="url(#paint70_linear_175_1868)"/>
<path d="M932.465 365.903H935.337V367.114H927.894V365.903H931.215V353.061L928.05 355.277L927.503 354.249L931.41 351.416H932.465V365.903Z" fill="url(#paint71_linear_175_1868)"/>
<path d="M932.465 392.018H935.337V393.229H927.894V392.018H931.215V379.176L928.05 381.393L927.503 380.364L931.41 377.531H932.465V392.018Z" fill="url(#paint72_linear_175_1868)"/>
<path d="M876.87 90.0349C878.264 90.0349 879.319 90.728 880.035 92.1143C880.765 93.4854 881.129 95.481 881.129 98.1012C881.129 100.721 880.765 102.725 880.035 104.111C879.319 105.497 878.264 106.19 876.87 106.19C875.49 106.19 874.435 105.497 873.705 104.111C872.976 102.725 872.611 100.721 872.611 98.1012C872.611 95.4962 872.976 93.5006 873.705 92.1143C874.435 90.728 875.49 90.0349 876.87 90.0349ZM873.999 98.1012C873.999 99.9598 874.142 101.415 874.428 102.466L878.765 92.3428C878.31 91.6268 877.678 91.2688 876.87 91.2688C875.972 91.2688 875.268 91.8325 874.76 92.9598C874.253 94.0719 873.999 95.7857 873.999 98.1012ZM876.87 104.934C877.782 104.934 878.492 104.378 879 103.266C879.508 102.138 879.762 100.417 879.762 98.1012C879.762 96.1361 879.599 94.6127 879.273 93.5311L874.936 103.745C875.405 104.538 876.05 104.934 876.87 104.934Z" fill="url(#paint73_linear_175_1868)"/>
<path d="M876.87 116.15C878.264 116.15 879.319 116.843 880.035 118.23C880.765 119.601 881.129 121.596 881.129 124.216C881.129 126.837 880.765 128.84 880.035 130.226C879.319 131.613 878.264 132.306 876.87 132.306C875.49 132.306 874.435 131.613 873.705 130.226C872.976 128.84 872.611 126.837 872.611 124.216C872.611 121.611 872.976 119.616 873.705 118.23C874.435 116.843 875.49 116.15 876.87 116.15ZM873.999 124.216C873.999 126.075 874.142 127.53 874.428 128.581L878.765 118.458C878.31 117.742 877.678 117.384 876.87 117.384C875.972 117.384 875.268 117.948 874.76 119.075C874.253 120.187 873.999 121.901 873.999 124.216ZM876.87 131.049C877.782 131.049 878.492 130.493 879 129.381C879.508 128.253 879.762 126.532 879.762 124.216C879.762 122.251 879.599 120.728 879.273 119.646L874.936 129.861C875.405 130.653 876.05 131.049 876.87 131.049Z" fill="url(#paint74_linear_175_1868)"/>
<path d="M878.043 156.981H880.914V158.192H873.471V156.981H876.792V144.139L873.627 146.356L873.08 145.327L876.988 142.494H878.043V156.981Z" fill="url(#paint75_linear_175_1868)"/>
<path d="M876.87 168.381C878.264 168.381 879.319 169.074 880.035 170.46C880.765 171.831 881.129 173.827 881.129 176.447C881.129 179.067 880.765 181.07 880.035 182.457C879.319 183.843 878.264 184.536 876.87 184.536C875.49 184.536 874.435 183.843 873.705 182.457C872.976 181.07 872.611 179.067 872.611 176.447C872.611 173.842 872.976 171.846 873.705 170.46C874.435 169.074 875.49 168.381 876.87 168.381ZM873.999 176.447C873.999 178.305 874.142 179.76 874.428 180.811L878.765 170.689C878.31 169.973 877.678 169.614 876.87 169.614C875.972 169.614 875.268 170.178 874.76 171.305C874.253 172.418 873.999 174.131 873.999 176.447ZM876.87 183.279C877.782 183.279 878.492 182.723 879 181.611C879.508 180.484 879.762 178.762 879.762 176.447C879.762 174.482 879.599 172.958 879.273 171.877L874.936 182.091C875.405 182.883 876.05 183.279 876.87 183.279Z" fill="url(#paint76_linear_175_1868)"/>
<path d="M878.043 209.212H880.914V210.423H873.471V209.212H876.792V196.37L873.627 198.586L873.08 197.558L876.988 194.724H878.043V209.212Z" fill="url(#paint77_linear_175_1868)"/>
<path d="M878.043 235.327H880.914V236.538H873.471V235.327H876.792V222.485L873.627 224.701L873.08 223.673L876.988 220.84H878.043V235.327Z" fill="url(#paint78_linear_175_1868)"/>
<path d="M914.324 52.5204H917.196V53.7315H909.753V52.5204H913.074V39.6782L909.909 41.8947L909.362 40.8664L913.269 38.0329H914.324V52.5204Z" fill="url(#paint79_linear_175_1868)"/>
<path d="M913.152 63.9197C914.546 63.9197 915.601 64.6128 916.317 65.9991C917.046 67.3701 917.411 69.3658 917.411 71.986C917.411 74.6062 917.046 76.6095 916.317 77.9958C915.601 79.382 914.546 80.0752 913.152 80.0752C911.772 80.0752 910.717 79.382 909.987 77.9958C909.258 76.6095 908.893 74.6062 908.893 71.986C908.893 69.381 909.258 67.3854 909.987 65.9991C910.717 64.6128 911.772 63.9197 913.152 63.9197ZM910.28 71.986C910.28 73.8445 910.424 75.2994 910.71 76.3505L915.047 66.2276C914.591 65.5116 913.96 65.1536 913.152 65.1536C912.253 65.1536 911.55 65.7173 911.042 66.8446C910.534 67.9566 910.28 69.6705 910.28 71.986ZM913.152 78.8184C914.064 78.8184 914.774 78.2624 915.282 77.1503C915.79 76.023 916.043 74.3016 916.043 71.986C916.043 70.0208 915.881 68.4974 915.555 67.4158L911.218 77.6302C911.687 78.4223 912.332 78.8184 913.152 78.8184Z" fill="url(#paint80_linear_175_1868)"/>
<path d="M914.324 104.751H917.196V105.962H909.753V104.751H913.074V91.9086L909.909 94.1252L909.362 93.0969L913.269 90.2634H914.324V104.751Z" fill="url(#paint81_linear_175_1868)"/>
<path d="M914.324 130.866H917.196V132.077H909.753V130.866H913.074V118.024L909.909 120.24L909.362 119.212L913.269 116.379H914.324V130.866Z" fill="url(#paint82_linear_175_1868)"/>
<path d="M913.152 142.265C914.546 142.265 915.601 142.958 916.317 144.345C917.046 145.716 917.411 147.711 917.411 150.332C917.411 152.952 917.046 154.955 916.317 156.341C915.601 157.728 914.546 158.421 913.152 158.421C911.772 158.421 910.717 157.728 909.987 156.341C909.258 154.955 908.893 152.952 908.893 150.332C908.893 147.727 909.258 145.731 909.987 144.345C910.717 142.958 911.772 142.265 913.152 142.265ZM910.28 150.332C910.28 152.19 910.424 153.645 910.71 154.696L915.047 144.573C914.591 143.857 913.96 143.499 913.152 143.499C912.253 143.499 911.55 144.063 911.042 145.19C910.534 146.302 910.28 148.016 910.28 150.332ZM913.152 157.164C914.064 157.164 914.774 156.608 915.282 155.496C915.79 154.369 916.043 152.647 916.043 150.332C916.043 148.367 915.881 146.843 915.555 145.762L911.218 155.976C911.687 156.768 912.332 157.164 913.152 157.164Z" fill="url(#paint83_linear_175_1868)"/>
<path d="M914.324 183.096H917.196V184.308H909.753V183.096H913.074V170.254L909.909 172.471L909.362 171.443L913.269 168.609H914.324V183.096Z" fill="url(#paint84_linear_175_1868)"/>
<path d="M914.324 209.212H917.196V210.423H909.753V209.212H913.074V196.37L909.909 198.586L909.362 197.558L913.269 194.724H914.324V209.212Z" fill="url(#paint85_linear_175_1868)"/>
<path d="M913.152 220.611C914.546 220.611 915.601 221.304 916.317 222.69C917.046 224.061 917.411 226.057 917.411 228.677C917.411 231.298 917.046 233.301 916.317 234.687C915.601 236.073 914.546 236.767 913.152 236.767C911.772 236.767 910.717 236.073 909.987 234.687C909.258 233.301 908.893 231.298 908.893 228.677C908.893 226.072 909.258 224.077 909.987 222.69C910.717 221.304 911.772 220.611 913.152 220.611ZM910.28 228.677C910.28 230.536 910.424 231.991 910.71 233.042L915.047 222.919C914.591 222.203 913.96 221.845 913.152 221.845C912.253 221.845 911.55 222.409 911.042 223.536C910.534 224.648 910.28 226.362 910.28 228.677ZM913.152 235.51C914.064 235.51 914.774 234.954 915.282 233.842C915.79 232.714 916.043 230.993 916.043 228.677C916.043 226.712 915.881 225.189 915.555 224.107L911.218 234.321C911.687 235.114 912.332 235.51 913.152 235.51Z" fill="url(#paint86_linear_175_1868)"/>
<path d="M914.324 261.442H917.196V262.653H909.753V261.442H913.074V248.6L909.909 250.817L909.362 249.788L913.269 246.955H914.324V261.442Z" fill="url(#paint87_linear_175_1868)"/>
<path d="M913.152 272.841C914.546 272.841 915.601 273.535 916.317 274.921C917.046 276.292 917.411 278.288 917.411 280.908C917.411 283.528 917.046 285.531 916.317 286.918C915.601 288.304 914.546 288.997 913.152 288.997C911.772 288.997 910.717 288.304 909.987 286.918C909.258 285.531 908.893 283.528 908.893 280.908C908.893 278.303 909.258 276.307 909.987 274.921C910.717 273.535 911.772 272.841 913.152 272.841ZM910.28 280.908C910.28 282.766 910.424 284.221 910.71 285.272L915.047 275.149C914.591 274.433 913.96 274.075 913.152 274.075C912.253 274.075 911.55 274.639 911.042 275.766C910.534 276.878 910.28 278.592 910.28 280.908ZM913.152 287.74C914.064 287.74 914.774 287.184 915.282 286.072C915.79 284.945 916.043 283.223 916.043 280.908C916.043 278.943 915.881 277.419 915.555 276.338L911.218 286.552C911.687 287.344 912.332 287.74 913.152 287.74Z" fill="url(#paint88_linear_175_1868)"/>
<path d="M949.434 37.8044C950.827 37.8044 951.882 38.4976 952.599 39.8839C953.328 41.2549 953.693 43.2505 953.693 45.8708C953.693 48.491 953.328 50.4943 952.599 51.8805C951.882 53.2668 950.827 53.96 949.434 53.96C948.053 53.96 946.998 53.2668 946.269 51.8805C945.54 50.4943 945.175 48.491 945.175 45.8708C945.175 43.2658 945.54 41.2701 946.269 39.8839C946.998 38.4976 948.053 37.8044 949.434 37.8044ZM946.562 45.8708C946.562 47.7293 946.705 49.1841 946.992 50.2353L951.329 40.1124C950.873 39.3964 950.241 39.0384 949.434 39.0384C948.535 39.0384 947.832 39.602 947.324 40.7293C946.816 41.8414 946.562 43.5552 946.562 45.8708ZM949.434 52.7032C950.346 52.7032 951.055 52.1471 951.563 51.0351C952.071 49.9078 952.325 48.1863 952.325 45.8708C952.325 43.9056 952.162 42.3822 951.837 41.3006L947.5 51.5149C947.969 52.3071 948.613 52.7032 949.434 52.7032Z" fill="url(#paint89_linear_175_1868)"/>
<path d="M950.606 78.6356H953.478V79.8467H946.035V78.6356H949.356V65.7934L946.191 68.01L945.644 66.9817L949.551 64.1482H950.606V78.6356Z" fill="url(#paint90_linear_175_1868)"/>
<path d="M950.606 104.751H953.478V105.962H946.035V104.751H949.356V91.9086L946.191 94.1252L945.644 93.0969L949.551 90.2634H950.606V104.751Z" fill="url(#paint91_linear_175_1868)"/>
<path d="M949.434 116.15C950.827 116.15 951.882 116.843 952.599 118.23C953.328 119.601 953.693 121.596 953.693 124.216C953.693 126.837 953.328 128.84 952.599 130.226C951.882 131.613 950.827 132.306 949.434 132.306C948.053 132.306 946.998 131.613 946.269 130.226C945.54 128.84 945.175 126.837 945.175 124.216C945.175 121.611 945.54 119.616 946.269 118.23C946.998 116.843 948.053 116.15 949.434 116.15ZM946.562 124.216C946.562 126.075 946.705 127.53 946.992 128.581L951.329 118.458C950.873 117.742 950.241 117.384 949.434 117.384C948.535 117.384 947.832 117.948 947.324 119.075C946.816 120.187 946.562 121.901 946.562 124.216ZM949.434 131.049C950.346 131.049 951.055 130.493 951.563 129.381C952.071 128.253 952.325 126.532 952.325 124.216C952.325 122.251 952.162 120.728 951.837 119.646L947.5 129.861C947.969 130.653 948.613 131.049 949.434 131.049Z" fill="url(#paint92_linear_175_1868)"/>
<path d="M949.434 142.265C950.827 142.265 951.882 142.958 952.599 144.345C953.328 145.716 953.693 147.711 953.693 150.332C953.693 152.952 953.328 154.955 952.599 156.341C951.882 157.728 950.827 158.421 949.434 158.421C948.053 158.421 946.998 157.728 946.269 156.341C945.54 154.955 945.175 152.952 945.175 150.332C945.175 147.727 945.54 145.731 946.269 144.345C946.998 142.958 948.053 142.265 949.434 142.265ZM946.562 150.332C946.562 152.19 946.705 153.645 946.992 154.696L951.329 144.573C950.873 143.857 950.241 143.499 949.434 143.499C948.535 143.499 947.832 144.063 947.324 145.19C946.816 146.302 946.562 148.016 946.562 150.332ZM949.434 157.164C950.346 157.164 951.055 156.608 951.563 155.496C952.071 154.369 952.325 152.647 952.325 150.332C952.325 148.367 952.162 146.843 951.837 145.762L947.5 155.976C947.969 156.768 948.613 157.164 949.434 157.164Z" fill="url(#paint93_linear_175_1868)"/>
</g>
<defs>
<filter id="filter0_f_175_1868" x="-558.19" y="-716.19" width="2110.38" height="1602.42" filterUnits="userSpaceOnUse" color-interpolation-filters="sRGB">
<feFlood flood-opacity="0" result="BackgroundImageFix"/>
<feBlend mode="normal" in="SourceGraphic" in2="BackgroundImageFix" result="shape"/>
<feGaussianBlur stdDeviation="200.095" result="effect1_foregroundBlur_175_1868"/>
</filter>
<linearGradient id="paint0_linear_175_1868" x1="47.6338" y1="355.419" x2="47.6338" y2="712.189" gradientUnits="userSpaceOnUse">
<stop stop-color="#F7DD43"/>
<stop offset="1" stop-color="#F7DD43" stop-opacity="0"/>
</linearGradient>
<linearGradient id="paint1_linear_175_1868" x1="47.6338" y1="355.419" x2="47.6338" y2="712.189" gradientUnits="userSpaceOnUse">
<stop stop-color="#F7DD43"/>
<stop offset="1" stop-color="#F7DD43" stop-opacity="0"/>
</linearGradient>
<linearGradient id="paint2_linear_175_1868" x1="47.6338" y1="355.419" x2="47.6338" y2="712.189" gradientUnits="userSpaceOnUse">
<stop stop-color="#F7DD43"/>
<stop offset="1" stop-color="#F7DD43" stop-opacity="0"/>
</linearGradient>
<linearGradient id="paint3_linear_175_1868" x1="47.6338" y1="355.419" x2="47.6338" y2="712.189" gradientUnits="userSpaceOnUse">
<stop stop-color="#F7DD43"/>
<stop offset="1" stop-color="#F7DD43" stop-opacity="0"/>
</linearGradient>
<linearGradient id="paint4_linear_175_1868" x1="47.6338" y1="355.419" x2="47.6338" y2="712.189" gradientUnits="userSpaceOnUse">
<stop stop-color="#F7DD43"/>
<stop offset="1" stop-color="#F7DD43" stop-opacity="0"/>
</linearGradient>
<linearGradient id="paint5_linear_175_1868" x1="47.6338" y1="355.419" x2="47.6338" y2="712.189" gradientUnits="userSpaceOnUse">
<stop stop-color="#F7DD43"/>
<stop offset="1" stop-color="#F7DD43" stop-opacity="0"/>
</linearGradient>
<linearGradient id="paint6_linear_175_1868" x1="47.6338" y1="355.419" x2="47.6338" y2="712.189" gradientUnits="userSpaceOnUse">
<stop stop-color="#F7DD43"/>
<stop offset="1" stop-color="#F7DD43" stop-opacity="0"/>
</linearGradient>
<linearGradient id="paint7_linear_175_1868" x1="47.6338" y1="355.419" x2="47.6338" y2="712.189" gradientUnits="userSpaceOnUse">
<stop stop-color="#F7DD43"/>
<stop offset="1" stop-color="#F7DD43" stop-opacity="0"/>
</linearGradient>
<linearGradient id="paint8_linear_175_1868" x1="47.6338" y1="355.419" x2="47.6338" y2="712.189" gradientUnits="userSpaceOnUse">
<stop stop-color="#F7DD43"/>
<stop offset="1" stop-color="#F7DD43" stop-opacity="0"/>
</linearGradient>
<linearGradient id="paint9_linear_175_1868" x1="47.6338" y1="355.419" x2="47.6338" y2="712.189" gradientUnits="userSpaceOnUse">
<stop stop-color="#F7DD43"/>
<stop offset="1" stop-color="#F7DD43" stop-opacity="0"/>
</linearGradient>
<linearGradient id="paint10_linear_175_1868" x1="47.6338" y1="355.419" x2="47.6338" y2="712.189" gradientUnits="userSpaceOnUse">
<stop stop-color="#F7DD43"/>
<stop offset="1" stop-color="#F7DD43" stop-opacity="0"/>
</linearGradient>
<linearGradient id="paint11_linear_175_1868" x1="47.6338" y1="355.419" x2="47.6338" y2="712.189" gradientUnits="userSpaceOnUse">
<stop stop-color="#F7DD43"/>
<stop offset="1" stop-color="#F7DD43" stop-opacity="0"/>
</linearGradient>
<linearGradient id="paint12_linear_175_1868" x1="47.6338" y1="355.419" x2="47.6338" y2="712.189" gradientUnits="userSpaceOnUse">
<stop stop-color="#F7DD43"/>
<stop offset="1" stop-color="#F7DD43" stop-opacity="0"/>
</linearGradient>
<linearGradient id="paint13_linear_175_1868" x1="47.6338" y1="355.419" x2="47.6338" y2="712.189" gradientUnits="userSpaceOnUse">
<stop stop-color="#F7DD43"/>
<stop offset="1" stop-color="#F7DD43" stop-opacity="0"/>
</linearGradient>
<linearGradient id="paint14_linear_175_1868" x1="47.6338" y1="355.419" x2="47.6338" y2="712.189" gradientUnits="userSpaceOnUse">
<stop stop-color="#F7DD43"/>
<stop offset="1" stop-color="#F7DD43" stop-opacity="0"/>
</linearGradient>
<linearGradient id="paint15_linear_175_1868" x1="47.6338" y1="355.419" x2="47.6338" y2="712.189" gradientUnits="userSpaceOnUse">
<stop stop-color="#F7DD43"/>
<stop offset="1" stop-color="#F7DD43" stop-opacity="0"/>
</linearGradient>
<linearGradient id="paint16_linear_175_1868" x1="47.6338" y1="355.419" x2="47.6338" y2="712.189" gradientUnits="userSpaceOnUse">
<stop stop-color="#F7DD43"/>
<stop offset="1" stop-color="#F7DD43" stop-opacity="0"/>
</linearGradient>
<linearGradient id="paint17_linear_175_1868" x1="47.6338" y1="355.419" x2="47.6338" y2="712.189" gradientUnits="userSpaceOnUse">
<stop stop-color="#F7DD43"/>
<stop offset="1" stop-color="#F7DD43" stop-opacity="0"/>
</linearGradient>
<linearGradient id="paint18_linear_175_1868" x1="47.6338" y1="355.419" x2="47.6338" y2="712.189" gradientUnits="userSpaceOnUse">
<stop stop-color="#F7DD43"/>
<stop offset="1" stop-color="#F7DD43" stop-opacity="0"/>
</linearGradient>
<linearGradient id="paint19_linear_175_1868" x1="47.6338" y1="355.419" x2="47.6338" y2="712.189" gradientUnits="userSpaceOnUse">
<stop stop-color="#F7DD43"/>
<stop offset="1" stop-color="#F7DD43" stop-opacity="0"/>
</linearGradient>
<linearGradient id="paint20_linear_175_1868" x1="47.6338" y1="355.419" x2="47.6338" y2="712.189" gradientUnits="userSpaceOnUse">
<stop stop-color="#F7DD43"/>
<stop offset="1" stop-color="#F7DD43" stop-opacity="0"/>
</linearGradient>
<linearGradient id="paint21_linear_175_1868" x1="47.6338" y1="355.419" x2="47.6338" y2="712.189" gradientUnits="userSpaceOnUse">
<stop stop-color="#F7DD43"/>
<stop offset="1" stop-color="#F7DD43" stop-opacity="0"/>
</linearGradient>
<linearGradient id="paint22_linear_175_1868" x1="47.6338" y1="355.419" x2="47.6338" y2="712.189" gradientUnits="userSpaceOnUse">
<stop stop-color="#F7DD43"/>
<stop offset="1" stop-color="#F7DD43" stop-opacity="0"/>
</linearGradient>
<linearGradient id="paint23_linear_175_1868" x1="47.6338" y1="355.419" x2="47.6338" y2="712.189" gradientUnits="userSpaceOnUse">
<stop stop-color="#F7DD43"/>
<stop offset="1" stop-color="#F7DD43" stop-opacity="0"/>
</linearGradient>
<linearGradient id="paint24_linear_175_1868" x1="47.6338" y1="355.419" x2="47.6338" y2="712.189" gradientUnits="userSpaceOnUse">
<stop stop-color="#F7DD43"/>
<stop offset="1" stop-color="#F7DD43" stop-opacity="0"/>
</linearGradient>
<linearGradient id="paint25_linear_175_1868" x1="47.6338" y1="355.419" x2="47.6338" y2="712.189" gradientUnits="userSpaceOnUse">
<stop stop-color="#F7DD43"/>
<stop offset="1" stop-color="#F7DD43" stop-opacity="0"/>
</linearGradient>
<linearGradient id="paint26_linear_175_1868" x1="47.6338" y1="355.419" x2="47.6338" y2="712.189" gradientUnits="userSpaceOnUse">
<stop stop-color="#F7DD43"/>
<stop offset="1" stop-color="#F7DD43" stop-opacity="0"/>
</linearGradient>
<linearGradient id="paint27_linear_175_1868" x1="47.6338" y1="355.419" x2="47.6338" y2="712.189" gradientUnits="userSpaceOnUse">
<stop stop-color="#F7DD43"/>
<stop offset="1" stop-color="#F7DD43" stop-opacity="0"/>
</linearGradient>
<linearGradient id="paint28_linear_175_1868" x1="47.6338" y1="355.419" x2="47.6338" y2="712.189" gradientUnits="userSpaceOnUse">
<stop stop-color="#F7DD43"/>
<stop offset="1" stop-color="#F7DD43" stop-opacity="0"/>
</linearGradient>
<linearGradient id="paint29_linear_175_1868" x1="47.6338" y1="355.419" x2="47.6338" y2="712.189" gradientUnits="userSpaceOnUse">
<stop stop-color="#F7DD43"/>
<stop offset="1" stop-color="#F7DD43" stop-opacity="0"/>
</linearGradient>
<linearGradient id="paint30_linear_175_1868" x1="47.6338" y1="355.419" x2="47.6338" y2="712.189" gradientUnits="userSpaceOnUse">
<stop stop-color="#F7DD43"/>
<stop offset="1" stop-color="#F7DD43" stop-opacity="0"/>
</linearGradient>
<linearGradient id="paint31_linear_175_1868" x1="47.6338" y1="355.419" x2="47.6338" y2="712.189" gradientUnits="userSpaceOnUse">
<stop stop-color="#F7DD43"/>
<stop offset="1" stop-color="#F7DD43" stop-opacity="0"/>
</linearGradient>
<linearGradient id="paint32_linear_175_1868" x1="47.6338" y1="355.419" x2="47.6338" y2="712.189" gradientUnits="userSpaceOnUse">
<stop stop-color="#F7DD43"/>
<stop offset="1" stop-color="#F7DD43" stop-opacity="0"/>
</linearGradient>
<linearGradient id="paint33_linear_175_1868" x1="47.6338" y1="355.419" x2="47.6338" y2="712.189" gradientUnits="userSpaceOnUse">
<stop stop-color="#F7DD43"/>
<stop offset="1" stop-color="#F7DD43" stop-opacity="0"/>
</linearGradient>
<linearGradient id="paint34_linear_175_1868" x1="47.6338" y1="355.419" x2="47.6338" y2="712.189" gradientUnits="userSpaceOnUse">
<stop stop-color="#F7DD43"/>
<stop offset="1" stop-color="#F7DD43" stop-opacity="0"/>
</linearGradient>
<linearGradient id="paint35_linear_175_1868" x1="47.6338" y1="355.419" x2="47.6338" y2="712.189" gradientUnits="userSpaceOnUse">
<stop stop-color="#F7DD43"/>
<stop offset="1" stop-color="#F7DD43" stop-opacity="0"/>
</linearGradient>
<linearGradient id="paint36_linear_175_1868" x1="47.6338" y1="355.419" x2="47.6338" y2="712.189" gradientUnits="userSpaceOnUse">
<stop stop-color="#F7DD43"/>
<stop offset="1" stop-color="#F7DD43" stop-opacity="0"/>
</linearGradient>
<linearGradient id="paint37_linear_175_1868" x1="47.6338" y1="355.419" x2="47.6338" y2="712.189" gradientUnits="userSpaceOnUse">
<stop stop-color="#F7DD43"/>
<stop offset="1" stop-color="#F7DD43" stop-opacity="0"/>
</linearGradient>
<linearGradient id="paint38_linear_175_1868" x1="47.6338" y1="355.419" x2="47.6338" y2="712.189" gradientUnits="userSpaceOnUse">
<stop stop-color="#F7DD43"/>
<stop offset="1" stop-color="#F7DD43" stop-opacity="0"/>
</linearGradient>
<linearGradient id="paint39_linear_175_1868" x1="47.6338" y1="355.419" x2="47.6338" y2="712.189" gradientUnits="userSpaceOnUse">
<stop stop-color="#F7DD43"/>
<stop offset="1" stop-color="#F7DD43" stop-opacity="0"/>
</linearGradient>
<linearGradient id="paint40_linear_175_1868" x1="47.6338" y1="355.419" x2="47.6338" y2="712.189" gradientUnits="userSpaceOnUse">
<stop stop-color="#F7DD43"/>
<stop offset="1" stop-color="#F7DD43" stop-opacity="0"/>
</linearGradient>
<linearGradient id="paint41_linear_175_1868" x1="47.6338" y1="355.419" x2="47.6338" y2="712.189" gradientUnits="userSpaceOnUse">
<stop stop-color="#F7DD43"/>
<stop offset="1" stop-color="#F7DD43" stop-opacity="0"/>
</linearGradient>
<linearGradient id="paint42_linear_175_1868" x1="47.6338" y1="355.419" x2="47.6338" y2="712.189" gradientUnits="userSpaceOnUse">
<stop stop-color="#F7DD43"/>
<stop offset="1" stop-color="#F7DD43" stop-opacity="0"/>
</linearGradient>
<linearGradient id="paint43_linear_175_1868" x1="47.6338" y1="355.419" x2="47.6338" y2="712.189" gradientUnits="userSpaceOnUse">
<stop stop-color="#F7DD43"/>
<stop offset="1" stop-color="#F7DD43" stop-opacity="0"/>
</linearGradient>
<linearGradient id="paint44_linear_175_1868" x1="47.6338" y1="355.419" x2="47.6338" y2="712.189" gradientUnits="userSpaceOnUse">
<stop stop-color="#F7DD43"/>
<stop offset="1" stop-color="#F7DD43" stop-opacity="0"/>
</linearGradient>
<linearGradient id="paint45_linear_175_1868" x1="47.6338" y1="355.419" x2="47.6338" y2="712.189" gradientUnits="userSpaceOnUse">
<stop stop-color="#F7DD43"/>
<stop offset="1" stop-color="#F7DD43" stop-opacity="0"/>
</linearGradient>
<linearGradient id="paint46_linear_175_1868" x1="47.6338" y1="355.419" x2="47.6338" y2="712.189" gradientUnits="userSpaceOnUse">
<stop stop-color="#F7DD43"/>
<stop offset="1" stop-color="#F7DD43" stop-opacity="0"/>
</linearGradient>
<linearGradient id="paint47_linear_175_1868" x1="913.152" y1="11.6892" x2="913.152" y2="354.065" gradientUnits="userSpaceOnUse">
<stop stop-color="#F7DD43"/>
<stop offset="1" stop-color="#F7DD43" stop-opacity="0"/>
</linearGradient>
<linearGradient id="paint48_linear_175_1868" x1="913.152" y1="11.6892" x2="913.152" y2="354.065" gradientUnits="userSpaceOnUse">
<stop stop-color="#F7DD43"/>
<stop offset="1" stop-color="#F7DD43" stop-opacity="0"/>
</linearGradient>
<linearGradient id="paint49_linear_175_1868" x1="913.152" y1="11.6892" x2="913.152" y2="354.065" gradientUnits="userSpaceOnUse">
<stop stop-color="#F7DD43"/>
<stop offset="1" stop-color="#F7DD43" stop-opacity="0"/>
</linearGradient>
<linearGradient id="paint50_linear_175_1868" x1="913.152" y1="11.6892" x2="913.152" y2="354.065" gradientUnits="userSpaceOnUse">
<stop stop-color="#F7DD43"/>
<stop offset="1" stop-color="#F7DD43" stop-opacity="0"/>
</linearGradient>
<linearGradient id="paint51_linear_175_1868" x1="913.152" y1="11.6892" x2="913.152" y2="354.065" gradientUnits="userSpaceOnUse">
<stop stop-color="#F7DD43"/>
<stop offset="1" stop-color="#F7DD43" stop-opacity="0"/>
</linearGradient>
<linearGradient id="paint52_linear_175_1868" x1="913.152" y1="11.6892" x2="913.152" y2="354.065" gradientUnits="userSpaceOnUse">
<stop stop-color="#F7DD43"/>
<stop offset="1" stop-color="#F7DD43" stop-opacity="0"/>
</linearGradient>
<linearGradient id="paint53_linear_175_1868" x1="913.152" y1="11.6892" x2="913.152" y2="354.065" gradientUnits="userSpaceOnUse">
<stop stop-color="#F7DD43"/>
<stop offset="1" stop-color="#F7DD43" stop-opacity="0"/>
</linearGradient>
<linearGradient id="paint54_linear_175_1868" x1="913.152" y1="11.6892" x2="913.152" y2="354.065" gradientUnits="userSpaceOnUse">
<stop stop-color="#F7DD43"/>
<stop offset="1" stop-color="#F7DD43" stop-opacity="0"/>
</linearGradient>
<linearGradient id="paint55_linear_175_1868" x1="913.152" y1="11.6892" x2="913.152" y2="354.065" gradientUnits="userSpaceOnUse">
<stop stop-color="#F7DD43"/>
<stop offset="1" stop-color="#F7DD43" stop-opacity="0"/>
</linearGradient>
<linearGradient id="paint56_linear_175_1868" x1="913.152" y1="11.6892" x2="913.152" y2="354.065" gradientUnits="userSpaceOnUse">
<stop stop-color="#F7DD43"/>
<stop offset="1" stop-color="#F7DD43" stop-opacity="0"/>
</linearGradient>
<linearGradient id="paint57_linear_175_1868" x1="913.152" y1="11.6892" x2="913.152" y2="354.065" gradientUnits="userSpaceOnUse">
<stop stop-color="#F7DD43"/>
<stop offset="1" stop-color="#F7DD43" stop-opacity="0"/>
</linearGradient>
<linearGradient id="paint58_linear_175_1868" x1="913.152" y1="11.6892" x2="913.152" y2="354.065" gradientUnits="userSpaceOnUse">
<stop stop-color="#F7DD43"/>
<stop offset="1" stop-color="#F7DD43" stop-opacity="0"/>
</linearGradient>
<linearGradient id="paint59_linear_175_1868" x1="913.152" y1="11.6892" x2="913.152" y2="354.065" gradientUnits="userSpaceOnUse">
<stop stop-color="#F7DD43"/>
<stop offset="1" stop-color="#F7DD43" stop-opacity="0"/>
</linearGradient>
<linearGradient id="paint60_linear_175_1868" x1="913.152" y1="11.6892" x2="913.152" y2="354.065" gradientUnits="userSpaceOnUse">
<stop stop-color="#F7DD43"/>
<stop offset="1" stop-color="#F7DD43" stop-opacity="0"/>
</linearGradient>
<linearGradient id="paint61_linear_175_1868" x1="913.152" y1="11.6892" x2="913.152" y2="354.065" gradientUnits="userSpaceOnUse">
<stop stop-color="#F7DD43"/>
<stop offset="1" stop-color="#F7DD43" stop-opacity="0"/>
</linearGradient>
<linearGradient id="paint62_linear_175_1868" x1="913.152" y1="11.6892" x2="913.152" y2="354.065" gradientUnits="userSpaceOnUse">
<stop stop-color="#F7DD43"/>
<stop offset="1" stop-color="#F7DD43" stop-opacity="0"/>
</linearGradient>
<linearGradient id="paint63_linear_175_1868" x1="913.152" y1="11.6892" x2="913.152" y2="354.065" gradientUnits="userSpaceOnUse">
<stop stop-color="#F7DD43"/>
<stop offset="1" stop-color="#F7DD43" stop-opacity="0"/>
</linearGradient>
<linearGradient id="paint64_linear_175_1868" x1="913.152" y1="11.6892" x2="913.152" y2="354.065" gradientUnits="userSpaceOnUse">
<stop stop-color="#F7DD43"/>
<stop offset="1" stop-color="#F7DD43" stop-opacity="0"/>
</linearGradient>
<linearGradient id="paint65_linear_175_1868" x1="913.152" y1="11.6892" x2="913.152" y2="354.065" gradientUnits="userSpaceOnUse">
<stop stop-color="#F7DD43"/>
<stop offset="1" stop-color="#F7DD43" stop-opacity="0"/>
</linearGradient>
<linearGradient id="paint66_linear_175_1868" x1="913.152" y1="11.6892" x2="913.152" y2="354.065" gradientUnits="userSpaceOnUse">
<stop stop-color="#F7DD43"/>
<stop offset="1" stop-color="#F7DD43" stop-opacity="0"/>
</linearGradient>
<linearGradient id="paint67_linear_175_1868" x1="913.152" y1="11.6892" x2="913.152" y2="354.065" gradientUnits="userSpaceOnUse">
<stop stop-color="#F7DD43"/>
<stop offset="1" stop-color="#F7DD43" stop-opacity="0"/>
</linearGradient>
<linearGradient id="paint68_linear_175_1868" x1="913.152" y1="11.6892" x2="913.152" y2="354.065" gradientUnits="userSpaceOnUse">
<stop stop-color="#F7DD43"/>
<stop offset="1" stop-color="#F7DD43" stop-opacity="0"/>
</linearGradient>
<linearGradient id="paint69_linear_175_1868" x1="913.152" y1="11.6892" x2="913.152" y2="354.065" gradientUnits="userSpaceOnUse">
<stop stop-color="#F7DD43"/>
<stop offset="1" stop-color="#F7DD43" stop-opacity="0"/>
</linearGradient>
<linearGradient id="paint70_linear_175_1868" x1="913.152" y1="11.6892" x2="913.152" y2="354.065" gradientUnits="userSpaceOnUse">
<stop stop-color="#F7DD43"/>
<stop offset="1" stop-color="#F7DD43" stop-opacity="0"/>
</linearGradient>
<linearGradient id="paint71_linear_175_1868" x1="913.152" y1="11.6892" x2="913.152" y2="354.065" gradientUnits="userSpaceOnUse">
<stop stop-color="#F7DD43"/>
<stop offset="1" stop-color="#F7DD43" stop-opacity="0"/>
</linearGradient>
<linearGradient id="paint72_linear_175_1868" x1="913.152" y1="11.6892" x2="913.152" y2="354.065" gradientUnits="userSpaceOnUse">
<stop stop-color="#F7DD43"/>
<stop offset="1" stop-color="#F7DD43" stop-opacity="0"/>
</linearGradient>
<linearGradient id="paint73_linear_175_1868" x1="913.152" y1="11.6892" x2="913.152" y2="354.065" gradientUnits="userSpaceOnUse">
<stop stop-color="#F7DD43"/>
<stop offset="1" stop-color="#F7DD43" stop-opacity="0"/>
</linearGradient>
<linearGradient id="paint74_linear_175_1868" x1="913.152" y1="11.6892" x2="913.152" y2="354.065" gradientUnits="userSpaceOnUse">
<stop stop-color="#F7DD43"/>
<stop offset="1" stop-color="#F7DD43" stop-opacity="0"/>
</linearGradient>
<linearGradient id="paint75_linear_175_1868" x1="913.152" y1="11.6892" x2="913.152" y2="354.065" gradientUnits="userSpaceOnUse">
<stop stop-color="#F7DD43"/>
<stop offset="1" stop-color="#F7DD43" stop-opacity="0"/>
</linearGradient>
<linearGradient id="paint76_linear_175_1868" x1="913.152" y1="11.6892" x2="913.152" y2="354.065" gradientUnits="userSpaceOnUse">
<stop stop-color="#F7DD43"/>
<stop offset="1" stop-color="#F7DD43" stop-opacity="0"/>
</linearGradient>
<linearGradient id="paint77_linear_175_1868" x1="913.152" y1="11.6892" x2="913.152" y2="354.065" gradientUnits="userSpaceOnUse">
<stop stop-color="#F7DD43"/>
<stop offset="1" stop-color="#F7DD43" stop-opacity="0"/>
</linearGradient>
<linearGradient id="paint78_linear_175_1868" x1="913.152" y1="11.6892" x2="913.152" y2="354.065" gradientUnits="userSpaceOnUse">
<stop stop-color="#F7DD43"/>
<stop offset="1" stop-color="#F7DD43" stop-opacity="0"/>
</linearGradient>
<linearGradient id="paint79_linear_175_1868" x1="913.152" y1="11.6892" x2="913.152" y2="354.065" gradientUnits="userSpaceOnUse">
<stop stop-color="#F7DD43"/>
<stop offset="1" stop-color="#F7DD43" stop-opacity="0"/>
</linearGradient>
<linearGradient id="paint80_linear_175_1868" x1="913.152" y1="11.6892" x2="913.152" y2="354.065" gradientUnits="userSpaceOnUse">
<stop stop-color="#F7DD43"/>
<stop offset="1" stop-color="#F7DD43" stop-opacity="0"/>
</linearGradient>
<linearGradient id="paint81_linear_175_1868" x1="913.152" y1="11.6892" x2="913.152" y2="354.065" gradientUnits="userSpaceOnUse">
<stop stop-color="#F7DD43"/>
<stop offset="1" stop-color="#F7DD43" stop-opacity="0"/>
</linearGradient>
<linearGradient id="paint82_linear_175_1868" x1="913.152" y1="11.6892" x2="913.152" y2="354.065" gradientUnits="userSpaceOnUse">
<stop stop-color="#F7DD43"/>
<stop offset="1" stop-color="#F7DD43" stop-opacity="0"/>
</linearGradient>
<linearGradient id="paint83_linear_175_1868" x1="913.152" y1="11.6892" x2="913.152" y2="354.065" gradientUnits="userSpaceOnUse">
<stop stop-color="#F7DD43"/>
<stop offset="1" stop-color="#F7DD43" stop-opacity="0"/>
</linearGradient>
<linearGradient id="paint84_linear_175_1868" x1="913.152" y1="11.6892" x2="913.152" y2="354.065" gradientUnits="userSpaceOnUse">
<stop stop-color="#F7DD43"/>
<stop offset="1" stop-color="#F7DD43" stop-opacity="0"/>
</linearGradient>
<linearGradient id="paint85_linear_175_1868" x1="913.152" y1="11.6892" x2="913.152" y2="354.065" gradientUnits="userSpaceOnUse">
<stop stop-color="#F7DD43"/>
<stop offset="1" stop-color="#F7DD43" stop-opacity="0"/>
</linearGradient>
<linearGradient id="paint86_linear_175_1868" x1="913.152" y1="11.6892" x2="913.152" y2="354.065" gradientUnits="userSpaceOnUse">
<stop stop-color="#F7DD43"/>
<stop offset="1" stop-color="#F7DD43" stop-opacity="0"/>
</linearGradient>
<linearGradient id="paint87_linear_175_1868" x1="913.152" y1="11.6892" x2="913.152" y2="354.065" gradientUnits="userSpaceOnUse">
<stop stop-color="#F7DD43"/>
<stop offset="1" stop-color="#F7DD43" stop-opacity="0"/>
</linearGradient>
<linearGradient id="paint88_linear_175_1868" x1="913.152" y1="11.6892" x2="913.152" y2="354.065" gradientUnits="userSpaceOnUse">
<stop stop-color="#F7DD43"/>
<stop offset="1" stop-color="#F7DD43" stop-opacity="0"/>
</linearGradient>
<linearGradient id="paint89_linear_175_1868" x1="913.152" y1="11.6892" x2="913.152" y2="354.065" gradientUnits="userSpaceOnUse">
<stop stop-color="#F7DD43"/>
<stop offset="1" stop-color="#F7DD43" stop-opacity="0"/>
</linearGradient>
<linearGradient id="paint90_linear_175_1868" x1="913.152" y1="11.6892" x2="913.152" y2="354.065" gradientUnits="userSpaceOnUse">
<stop stop-color="#F7DD43"/>
<stop offset="1" stop-color="#F7DD43" stop-opacity="0"/>
</linearGradient>
<linearGradient id="paint91_linear_175_1868" x1="913.152" y1="11.6892" x2="913.152" y2="354.065" gradientUnits="userSpaceOnUse">
<stop stop-color="#F7DD43"/>
<stop offset="1" stop-color="#F7DD43" stop-opacity="0"/>
</linearGradient>
<linearGradient id="paint92_linear_175_1868" x1="913.152" y1="11.6892" x2="913.152" y2="354.065" gradientUnits="userSpaceOnUse">
<stop stop-color="#F7DD43"/>
<stop offset="1" stop-color="#F7DD43" stop-opacity="0"/>
</linearGradient>
<linearGradient id="paint93_linear_175_1868" x1="913.152" y1="11.6892" x2="913.152" y2="354.065" gradientUnits="userSpaceOnUse">
<stop stop-color="#F7DD43"/>
<stop offset="1" stop-color="#F7DD43" stop-opacity="0"/>
</linearGradient>
</defs>
</svg>
